<svg xmlns="http://www.w3.org/2000/svg" xmlns:xlink="http://www.w3.org/1999/xlink" width="1920" height="290" viewBox="0 0 1920 290">
  <defs>
    <clipPath id="clip-path">
      <rect id="Rectangle_21" data-name="Rectangle 21" width="1920" height="288" transform="translate(2072 2223)" fill="#4a6072"/>
    </clipPath>
  </defs>
  <g id="Group_27" data-name="Group 27" transform="translate(0 -1630)">
    <rect id="Rectangle_9" data-name="Rectangle 9" width="1920" height="288" transform="translate(0 1632)" fill="#4a6072"/>
    <g id="Mask_Group_1" data-name="Mask Group 1" transform="translate(-2072 -593)" clip-path="url(#clip-path)">
      <path id="_" data-name="$" d="M55.675,46.75h-9.45V41.373a13.684,13.684,0,0,1-7.2-4.23,14.053,14.053,0,0,1-3.4-8.981L35.562,26.6H45.693l.126,1.362a4.866,4.866,0,0,0,1.45,3.287A4.779,4.779,0,0,0,50.675,32.4a5.668,5.668,0,0,0,3.224-.785,1.944,1.944,0,0,0,.876-1.765,1.342,1.342,0,0,0-.4-1.084,4.507,4.507,0,0,0-1.637-.949c-.82-.284-2.019-.624-3.565-1.01a38.56,38.56,0,0,1-6.06-1.9,11.3,11.3,0,0,1-4.524-3.59,10.954,10.954,0,0,1-1.96-6.813,10.227,10.227,0,0,1,3.064-7.486,13.109,13.109,0,0,1,6.536-3.46V-1.3h9.45V3.905A12.855,12.855,0,0,1,61.74,7.8a12.062,12.062,0,0,1,2.835,7.763l.038,1.537H54.561l-.129-1.358a3.165,3.165,0,0,0-1.156-2.305,4.722,4.722,0,0,0-3.051-.887,4.409,4.409,0,0,0-2.615.661,1.466,1.466,0,0,0-.685,1.289,1.508,1.508,0,0,0,.43,1.209,4.742,4.742,0,0,0,1.752,1c.879.3,2.123.629,3.7.982l.016,0a44.116,44.116,0,0,1,6.062,1.817,10.631,10.631,0,0,1,4.509,3.507,10.856,10.856,0,0,1,1.933,6.736,10.99,10.99,0,0,1-3.015,7.86,13.5,13.5,0,0,1-6.635,3.7Zm-6.45-3h3.45v-4.9l1.235-.222a11.073,11.073,0,0,0,6.23-3.084,7.982,7.982,0,0,0,2.185-5.79,7.99,7.99,0,0,0-1.317-4.914,7.573,7.573,0,0,0-3.241-2.543,41.193,41.193,0,0,0-5.63-1.681,40.468,40.468,0,0,1-3.995-1.066A7.7,7.7,0,0,1,45.3,17.891a4.526,4.526,0,0,1-1.37-3.391,4.451,4.451,0,0,1,1.915-3.711A7.282,7.282,0,0,1,50.225,9.55a7.606,7.606,0,0,1,4.949,1.563A5.96,5.96,0,0,1,57.161,14.1h4.278A8.6,8.6,0,0,0,59.46,9.75a10.141,10.141,0,0,0-5.628-3.24l-1.157-.271V1.7h-3.45V6.093l-1.278.191a10.521,10.521,0,0,0-6.136,2.852A7.231,7.231,0,0,0,39.625,14.5a8.089,8.089,0,0,0,1.34,4.987,8.229,8.229,0,0,0,3.326,2.66,35.663,35.663,0,0,0,5.583,1.745l.015,0c1.658.415,2.91.77,3.827,1.088a7.476,7.476,0,0,1,2.713,1.6,4.363,4.363,0,0,1,1.346,3.266A4.924,4.924,0,0,1,55.6,34.085,8.546,8.546,0,0,1,50.675,35.4a7.731,7.731,0,0,1-5.444-1.949A7.423,7.423,0,0,1,43.049,29.6H38.768a10.462,10.462,0,0,0,2.506,5.557,10.959,10.959,0,0,0,6.7,3.514l1.251.211Z" transform="translate(2585 2250.775)" fill="#98a4af"/>
      <g id="_Color" data-name=" ↳Color" transform="translate(3574 2412)" fill="none" stroke-miterlimit="10">
        <path d="M37.5,65a24,24,0,0,1-14.522-5.038l4.977-5.93A17.562,17.562,0,0,0,37.5,56.876c11.279,0,20.456-10.935,20.456-24.376H47.73L61.365,16.248,75,32.5H64.774C64.774,50.419,52.537,65,37.5,65ZM13.635,48.748l0,0L0,32.5H10.226C10.226,14.581,22.463,0,37.5,0A24.007,24.007,0,0,1,52.025,5.038l-4.98,5.93A17.562,17.562,0,0,0,37.5,8.124c-11.278,0-20.453,10.935-20.453,24.376H27.274L13.638,48.745Z" stroke="none"/>
        <path d="M 37.5 62 C 40.70113372802734 62 43.81431579589844 61.24760055541992 46.75310134887695 59.76371765136719 C 49.63475036621094 58.30866622924805 52.23368453979492 56.21506500244141 54.47768402099609 53.54104995727539 C 56.75386810302734 50.82868194580078 58.5445671081543 47.66318511962891 59.80006790161133 44.13246536254883 C 61.10958480834961 40.4498176574707 61.77356719970703 36.53608322143555 61.77356719970703 32.5 L 61.77356719970703 29.5 L 68.56697082519531 29.5 L 61.36474990844727 20.91567993164062 L 54.16252517700195 29.5 L 60.9559326171875 29.5 L 60.9559326171875 32.5 C 60.9559326171875 47.59513473510742 50.43365097045898 59.87591552734375 37.5 59.87591552734375 C 34.44004821777344 59.87591552734375 31.42852020263672 59.18389511108398 28.66010284423828 57.85771179199219 L 27.44263648986816 59.3084831237793 C 30.5958194732666 61.07692337036133 34.02249145507812 62 37.5 62 M 13.63551139831543 44.08158874511719 L 20.83868980407715 35.5 L 14.04713344573975 35.5 L 14.04713344573975 32.5 C 14.04713344573975 17.40486717224121 24.56805038452148 5.124083518981934 37.5 5.124083518981934 C 40.5601921081543 5.124083518981934 43.57199859619141 5.816234111785889 46.34059524536133 7.14262056350708 L 47.55946731567383 5.691070079803467 C 44.4061164855957 3.922903299331665 40.97877502441406 3 37.5 3 C 34.29886627197266 3 31.18568420410156 3.752399921417236 28.24690055847168 5.236283302307129 C 25.36523246765137 6.691333293914795 22.76631736755371 8.784933090209961 20.52231597900391 11.45895004272461 C 18.24613380432129 14.1713171005249 16.4554328918457 17.33681678771973 15.19993305206299 20.86753273010254 C 13.89041709899902 24.55018424987793 13.22643375396729 28.46391677856445 13.22643375396729 32.5 L 13.22643375396729 35.5 L 6.433953285217285 35.5 L 13.63551139831543 44.08158874511719 M 37.5 65 C 32.36083221435547 65 27.3392162322998 63.25781631469727 22.9780330657959 59.96175003051758 L 27.95471572875977 54.0313835144043 C 30.83404922485352 55.89206695556641 34.13335037231445 56.87591552734375 37.5 56.87591552734375 C 48.77944946289062 56.87591552734375 57.9559326171875 45.94093322753906 57.9559326171875 32.5 L 47.72949981689453 32.5 L 61.36474990844727 16.24816703796387 L 75 32.5 L 64.77356719970703 32.5 C 64.77356719970703 50.41873168945312 52.53715133666992 65 37.5 65 Z M 13.63525009155273 48.74813461303711 L 13.63283348083496 48.74528503417969 L 0 32.5 L 10.22643375396729 32.5 C 10.22643375396729 14.58126640319824 22.46283340454102 0 37.5 0 C 42.64116668701172 0 47.66383361816406 1.742183327674866 52.02503204345703 5.038249969482422 L 47.04528427124023 10.9686164855957 C 44.16595077514648 9.107933044433594 40.86663436889648 8.124083518981934 37.5 8.124083518981934 C 26.22224998474121 8.124083518981934 17.04713249206543 19.05906677246094 17.04713249206543 32.5 L 27.27356719970703 32.5 L 13.63525009155273 48.74813461303711 Z" stroke="none" fill="#98a4af"/>
      </g>
      <g id="_Color-2" data-name=" ↳Color" transform="translate(2081 2241)" fill="none" stroke-miterlimit="10">
        <path d="M37.5,65a24,24,0,0,1-14.522-5.038l4.977-5.93A17.562,17.562,0,0,0,37.5,56.876c11.279,0,20.456-10.935,20.456-24.376H47.73L61.365,16.248,75,32.5H64.774C64.774,50.419,52.537,65,37.5,65ZM13.635,48.748l0,0L0,32.5H10.226C10.226,14.581,22.463,0,37.5,0A24.007,24.007,0,0,1,52.025,5.038l-4.98,5.93A17.562,17.562,0,0,0,37.5,8.124c-11.278,0-20.453,10.935-20.453,24.376H27.274L13.638,48.745Z" stroke="none"/>
        <path d="M 37.5 62 C 40.70113372802734 62 43.81431579589844 61.24760055541992 46.75310134887695 59.76371765136719 C 49.63475036621094 58.30866622924805 52.23368453979492 56.21506500244141 54.47768402099609 53.54104995727539 C 56.75386810302734 50.82868194580078 58.5445671081543 47.66318511962891 59.80006790161133 44.13246536254883 C 61.10958480834961 40.4498176574707 61.77356719970703 36.53608322143555 61.77356719970703 32.5 L 61.77356719970703 29.5 L 68.56697082519531 29.5 L 61.36474990844727 20.91567993164062 L 54.16252517700195 29.5 L 60.9559326171875 29.5 L 60.9559326171875 32.5 C 60.9559326171875 47.59513473510742 50.43365097045898 59.87591552734375 37.5 59.87591552734375 C 34.44004821777344 59.87591552734375 31.42852020263672 59.18389511108398 28.66010284423828 57.85771179199219 L 27.44263648986816 59.3084831237793 C 30.5958194732666 61.07692337036133 34.02249145507812 62 37.5 62 M 13.63551139831543 44.08158874511719 L 20.83868980407715 35.5 L 14.04713344573975 35.5 L 14.04713344573975 32.5 C 14.04713344573975 17.40486717224121 24.56805038452148 5.124083518981934 37.5 5.124083518981934 C 40.5601921081543 5.124083518981934 43.57199859619141 5.816234111785889 46.34059524536133 7.14262056350708 L 47.55946731567383 5.691070079803467 C 44.4061164855957 3.922903299331665 40.97877502441406 3 37.5 3 C 34.29886627197266 3 31.18568420410156 3.752399921417236 28.24690055847168 5.236283302307129 C 25.36523246765137 6.691333293914795 22.76631736755371 8.784933090209961 20.52231597900391 11.45895004272461 C 18.24613380432129 14.1713171005249 16.4554328918457 17.33681678771973 15.19993305206299 20.86753273010254 C 13.89041709899902 24.55018424987793 13.22643375396729 28.46391677856445 13.22643375396729 32.5 L 13.22643375396729 35.5 L 6.433953285217285 35.5 L 13.63551139831543 44.08158874511719 M 37.5 65 C 32.36083221435547 65 27.3392162322998 63.25781631469727 22.9780330657959 59.96175003051758 L 27.95471572875977 54.0313835144043 C 30.83404922485352 55.89206695556641 34.13335037231445 56.87591552734375 37.5 56.87591552734375 C 48.77944946289062 56.87591552734375 57.9559326171875 45.94093322753906 57.9559326171875 32.5 L 47.72949981689453 32.5 L 61.36474990844727 16.24816703796387 L 75 32.5 L 64.77356719970703 32.5 C 64.77356719970703 50.41873168945312 52.53715133666992 65 37.5 65 Z M 13.63525009155273 48.74813461303711 L 13.63283348083496 48.74528503417969 L 0 32.5 L 10.22643375396729 32.5 C 10.22643375396729 14.58126640319824 22.46283340454102 0 37.5 0 C 42.64116668701172 0 47.66383361816406 1.742183327674866 52.02503204345703 5.038249969482422 L 47.04528427124023 10.9686164855957 C 44.16595077514648 9.107933044433594 40.86663436889648 8.124083518981934 37.5 8.124083518981934 C 26.22224998474121 8.124083518981934 17.04713249206543 19.05906677246094 17.04713249206543 32.5 L 27.27356719970703 32.5 L 13.63525009155273 48.74813461303711 Z" stroke="none" fill="#98a4af"/>
      </g>
      <g id="_Color-3" data-name=" ↳Color" transform="translate(3826 2249)" fill="none" stroke-miterlimit="10">
        <path d="M37.5,65a24,24,0,0,1-14.522-5.038l4.977-5.93A17.562,17.562,0,0,0,37.5,56.876c11.279,0,20.456-10.935,20.456-24.376H47.73L61.365,16.248,75,32.5H64.774C64.774,50.419,52.537,65,37.5,65ZM13.635,48.748l0,0L0,32.5H10.226C10.226,14.581,22.463,0,37.5,0A24.007,24.007,0,0,1,52.025,5.038l-4.98,5.93A17.562,17.562,0,0,0,37.5,8.124c-11.278,0-20.453,10.935-20.453,24.376H27.274L13.638,48.745Z" stroke="none"/>
        <path d="M 37.5 62 C 40.70113372802734 62 43.81431579589844 61.24760055541992 46.75310134887695 59.76371765136719 C 49.63475036621094 58.30866622924805 52.23368453979492 56.21506500244141 54.47768402099609 53.54104995727539 C 56.75386810302734 50.82868194580078 58.5445671081543 47.66318511962891 59.80006790161133 44.13246536254883 C 61.10958480834961 40.4498176574707 61.77356719970703 36.53608322143555 61.77356719970703 32.5 L 61.77356719970703 29.5 L 68.56697082519531 29.5 L 61.36474990844727 20.91567993164062 L 54.16252517700195 29.5 L 60.9559326171875 29.5 L 60.9559326171875 32.5 C 60.9559326171875 47.59513473510742 50.43365097045898 59.87591552734375 37.5 59.87591552734375 C 34.44004821777344 59.87591552734375 31.42852020263672 59.18389511108398 28.66010284423828 57.85771179199219 L 27.44263648986816 59.3084831237793 C 30.5958194732666 61.07692337036133 34.02249145507812 62 37.5 62 M 13.63551139831543 44.08158874511719 L 20.83868980407715 35.5 L 14.04713344573975 35.5 L 14.04713344573975 32.5 C 14.04713344573975 17.40486717224121 24.56805038452148 5.124083518981934 37.5 5.124083518981934 C 40.5601921081543 5.124083518981934 43.57199859619141 5.816234111785889 46.34059524536133 7.14262056350708 L 47.55946731567383 5.691070079803467 C 44.4061164855957 3.922903299331665 40.97877502441406 3 37.5 3 C 34.29886627197266 3 31.18568420410156 3.752399921417236 28.24690055847168 5.236283302307129 C 25.36523246765137 6.691333293914795 22.76631736755371 8.784933090209961 20.52231597900391 11.45895004272461 C 18.24613380432129 14.1713171005249 16.4554328918457 17.33681678771973 15.19993305206299 20.86753273010254 C 13.89041709899902 24.55018424987793 13.22643375396729 28.46391677856445 13.22643375396729 32.5 L 13.22643375396729 35.5 L 6.433953285217285 35.5 L 13.63551139831543 44.08158874511719 M 37.5 65 C 32.36083221435547 65 27.3392162322998 63.25781631469727 22.9780330657959 59.96175003051758 L 27.95471572875977 54.0313835144043 C 30.83404922485352 55.89206695556641 34.13335037231445 56.87591552734375 37.5 56.87591552734375 C 48.77944946289062 56.87591552734375 57.9559326171875 45.94093322753906 57.9559326171875 32.5 L 47.72949981689453 32.5 L 61.36474990844727 16.24816703796387 L 75 32.5 L 64.77356719970703 32.5 C 64.77356719970703 50.41873168945312 52.53715133666992 65 37.5 65 Z M 13.63525009155273 48.74813461303711 L 13.63283348083496 48.74528503417969 L 0 32.5 L 10.22643375396729 32.5 C 10.22643375396729 14.58126640319824 22.46283340454102 0 37.5 0 C 42.64116668701172 0 47.66383361816406 1.742183327674866 52.02503204345703 5.038249969482422 L 47.04528427124023 10.9686164855957 C 44.16595077514648 9.107933044433594 40.86663436889648 8.124083518981934 37.5 8.124083518981934 C 26.22224998474121 8.124083518981934 17.04713249206543 19.05906677246094 17.04713249206543 32.5 L 27.27356719970703 32.5 L 13.63525009155273 48.74813461303711 Z" stroke="none" fill="#98a4af"/>
      </g>
      <path id="Path_403" data-name="Path 403" d="M30.5,30.5A13.25,13.25,0,1,0,17.25,17.25,13.246,13.246,0,0,0,30.5,30.5Zm0,6.625c-8.844,0-26.5,4.439-26.5,13.25V57H57V50.375C57,41.564,39.344,37.125,30.5,37.125Z" transform="translate(2481 2407)" fill="none" stroke="#98a4af" stroke-width="3"/>
      <path id="Path_404" data-name="Path 404" d="M30.5,30.5A13.25,13.25,0,1,0,17.25,17.25,13.246,13.246,0,0,0,30.5,30.5Zm0,6.625c-8.844,0-26.5,4.439-26.5,13.25V57H57V50.375C57,41.564,39.344,37.125,30.5,37.125Z" transform="translate(2200 2386)" fill="none" stroke="#98a4af" stroke-width="3"/>
      <path id="Path_405" data-name="Path 405" d="M30.5,30.5A13.25,13.25,0,1,0,17.25,17.25,13.246,13.246,0,0,0,30.5,30.5Zm0,6.625c-8.844,0-26.5,4.439-26.5,13.25V57H57V50.375C57,41.564,39.344,37.125,30.5,37.125Z" transform="translate(3336 2438)" fill="none" stroke="#98a4af" stroke-width="3"/>
      <path id="Path_406" data-name="Path 406" d="M30.5,30.5A13.25,13.25,0,1,0,17.25,17.25,13.246,13.246,0,0,0,30.5,30.5Zm0,6.625c-8.844,0-26.5,4.439-26.5,13.25V57H57V50.375C57,41.564,39.344,37.125,30.5,37.125Z" transform="translate(3859 2412)" fill="none" stroke="#98a4af" stroke-width="3"/>
      <path id="_2" data-name="$" d="M55.675,46.75h-9.45V41.373a13.684,13.684,0,0,1-7.2-4.23,14.053,14.053,0,0,1-3.4-8.981L35.562,26.6H45.693l.126,1.362a4.866,4.866,0,0,0,1.45,3.287A4.779,4.779,0,0,0,50.675,32.4a5.668,5.668,0,0,0,3.224-.785,1.944,1.944,0,0,0,.876-1.765,1.342,1.342,0,0,0-.4-1.084,4.507,4.507,0,0,0-1.637-.949c-.82-.284-2.019-.624-3.565-1.01a38.56,38.56,0,0,1-6.06-1.9,11.3,11.3,0,0,1-4.524-3.59,10.954,10.954,0,0,1-1.96-6.813,10.227,10.227,0,0,1,3.064-7.486,13.109,13.109,0,0,1,6.536-3.46V-1.3h9.45V3.905A12.855,12.855,0,0,1,61.74,7.8a12.062,12.062,0,0,1,2.835,7.763l.038,1.537H54.561l-.129-1.358a3.165,3.165,0,0,0-1.156-2.305,4.722,4.722,0,0,0-3.051-.887,4.409,4.409,0,0,0-2.615.661,1.466,1.466,0,0,0-.685,1.289,1.508,1.508,0,0,0,.43,1.209,4.742,4.742,0,0,0,1.752,1c.879.3,2.123.629,3.7.982l.016,0a44.116,44.116,0,0,1,6.062,1.817,10.631,10.631,0,0,1,4.509,3.507,10.856,10.856,0,0,1,1.933,6.736,10.99,10.99,0,0,1-3.015,7.86,13.5,13.5,0,0,1-6.635,3.7Zm-6.45-3h3.45v-4.9l1.235-.222a11.073,11.073,0,0,0,6.23-3.084,7.982,7.982,0,0,0,2.185-5.79,7.99,7.99,0,0,0-1.317-4.914,7.573,7.573,0,0,0-3.241-2.543,41.193,41.193,0,0,0-5.63-1.681,40.468,40.468,0,0,1-3.995-1.066A7.7,7.7,0,0,1,45.3,17.891a4.526,4.526,0,0,1-1.37-3.391,4.451,4.451,0,0,1,1.915-3.711A7.282,7.282,0,0,1,50.225,9.55a7.606,7.606,0,0,1,4.949,1.563A5.96,5.96,0,0,1,57.161,14.1h4.278A8.6,8.6,0,0,0,59.46,9.75a10.141,10.141,0,0,0-5.628-3.24l-1.157-.271V1.7h-3.45V6.093l-1.278.191a10.521,10.521,0,0,0-6.136,2.852A7.231,7.231,0,0,0,39.625,14.5a8.089,8.089,0,0,0,1.34,4.987,8.229,8.229,0,0,0,3.326,2.66,35.663,35.663,0,0,0,5.583,1.745l.015,0c1.658.415,2.91.77,3.827,1.088a7.476,7.476,0,0,1,2.713,1.6,4.363,4.363,0,0,1,1.346,3.266A4.924,4.924,0,0,1,55.6,34.085,8.546,8.546,0,0,1,50.675,35.4a7.731,7.731,0,0,1-5.444-1.949A7.423,7.423,0,0,1,43.049,29.6H38.768a10.462,10.462,0,0,0,2.506,5.557,10.959,10.959,0,0,0,6.7,3.514l1.251.211Z" transform="translate(3411.438 2337.725)" fill="#98a4af"/>
      <path id="_3" data-name="$" d="M55.675,46.75h-9.45V41.373a13.684,13.684,0,0,1-7.2-4.23,14.053,14.053,0,0,1-3.4-8.981L35.562,26.6H45.693l.126,1.362a4.866,4.866,0,0,0,1.45,3.287A4.779,4.779,0,0,0,50.675,32.4a5.668,5.668,0,0,0,3.224-.785,1.944,1.944,0,0,0,.876-1.765,1.342,1.342,0,0,0-.4-1.084,4.507,4.507,0,0,0-1.637-.949c-.82-.284-2.019-.624-3.565-1.01a38.56,38.56,0,0,1-6.06-1.9,11.3,11.3,0,0,1-4.524-3.59,10.954,10.954,0,0,1-1.96-6.813,10.227,10.227,0,0,1,3.064-7.486,13.109,13.109,0,0,1,6.536-3.46V-1.3h9.45V3.905A12.855,12.855,0,0,1,61.74,7.8a12.062,12.062,0,0,1,2.835,7.763l.038,1.537H54.561l-.129-1.358a3.165,3.165,0,0,0-1.156-2.305,4.722,4.722,0,0,0-3.051-.887,4.409,4.409,0,0,0-2.615.661,1.466,1.466,0,0,0-.685,1.289,1.508,1.508,0,0,0,.43,1.209,4.742,4.742,0,0,0,1.752,1c.879.3,2.123.629,3.7.982l.016,0a44.116,44.116,0,0,1,6.062,1.817,10.631,10.631,0,0,1,4.509,3.507,10.856,10.856,0,0,1,1.933,6.736,10.99,10.99,0,0,1-3.015,7.86,13.5,13.5,0,0,1-6.635,3.7Zm-6.45-3h3.45v-4.9l1.235-.222a11.073,11.073,0,0,0,6.23-3.084,7.982,7.982,0,0,0,2.185-5.79,7.99,7.99,0,0,0-1.317-4.914,7.573,7.573,0,0,0-3.241-2.543,41.193,41.193,0,0,0-5.63-1.681,40.468,40.468,0,0,1-3.995-1.066A7.7,7.7,0,0,1,45.3,17.891a4.526,4.526,0,0,1-1.37-3.391,4.451,4.451,0,0,1,1.915-3.711A7.282,7.282,0,0,1,50.225,9.55a7.606,7.606,0,0,1,4.949,1.563A5.96,5.96,0,0,1,57.161,14.1h4.278A8.6,8.6,0,0,0,59.46,9.75a10.141,10.141,0,0,0-5.628-3.24l-1.157-.271V1.7h-3.45V6.093l-1.278.191a10.521,10.521,0,0,0-6.136,2.852A7.231,7.231,0,0,0,39.625,14.5a8.089,8.089,0,0,0,1.34,4.987,8.229,8.229,0,0,0,3.326,2.66,35.663,35.663,0,0,0,5.583,1.745l.015,0c1.658.415,2.91.77,3.827,1.088a7.476,7.476,0,0,1,2.713,1.6,4.363,4.363,0,0,1,1.346,3.266A4.924,4.924,0,0,1,55.6,34.085,8.546,8.546,0,0,1,50.675,35.4a7.731,7.731,0,0,1-5.444-1.949A7.423,7.423,0,0,1,43.049,29.6H38.768a10.462,10.462,0,0,0,2.506,5.557,10.959,10.959,0,0,0,6.7,3.514l1.251.211Z" transform="translate(3529 2267.5)" fill="#98a4af"/>
      <path id="_4" data-name="$" d="M55.675,46.75h-9.45V41.373a13.684,13.684,0,0,1-7.2-4.23,14.053,14.053,0,0,1-3.4-8.981L35.562,26.6H45.693l.126,1.362a4.866,4.866,0,0,0,1.45,3.287A4.779,4.779,0,0,0,50.675,32.4a5.668,5.668,0,0,0,3.224-.785,1.944,1.944,0,0,0,.876-1.765,1.342,1.342,0,0,0-.4-1.084,4.507,4.507,0,0,0-1.637-.949c-.82-.284-2.019-.624-3.565-1.01a38.56,38.56,0,0,1-6.06-1.9,11.3,11.3,0,0,1-4.524-3.59,10.954,10.954,0,0,1-1.96-6.813,10.227,10.227,0,0,1,3.064-7.486,13.109,13.109,0,0,1,6.536-3.46V-1.3h9.45V3.905A12.855,12.855,0,0,1,61.74,7.8a12.062,12.062,0,0,1,2.835,7.763l.038,1.537H54.561l-.129-1.358a3.165,3.165,0,0,0-1.156-2.305,4.722,4.722,0,0,0-3.051-.887,4.409,4.409,0,0,0-2.615.661,1.466,1.466,0,0,0-.685,1.289,1.508,1.508,0,0,0,.43,1.209,4.742,4.742,0,0,0,1.752,1c.879.3,2.123.629,3.7.982l.016,0a44.116,44.116,0,0,1,6.062,1.817,10.631,10.631,0,0,1,4.509,3.507,10.856,10.856,0,0,1,1.933,6.736,10.99,10.99,0,0,1-3.015,7.86,13.5,13.5,0,0,1-6.635,3.7Zm-6.45-3h3.45v-4.9l1.235-.222a11.073,11.073,0,0,0,6.23-3.084,7.982,7.982,0,0,0,2.185-5.79,7.99,7.99,0,0,0-1.317-4.914,7.573,7.573,0,0,0-3.241-2.543,41.193,41.193,0,0,0-5.63-1.681,40.468,40.468,0,0,1-3.995-1.066A7.7,7.7,0,0,1,45.3,17.891a4.526,4.526,0,0,1-1.37-3.391,4.451,4.451,0,0,1,1.915-3.711A7.282,7.282,0,0,1,50.225,9.55a7.606,7.606,0,0,1,4.949,1.563A5.96,5.96,0,0,1,57.161,14.1h4.278A8.6,8.6,0,0,0,59.46,9.75a10.141,10.141,0,0,0-5.628-3.24l-1.157-.271V1.7h-3.45V6.093l-1.278.191a10.521,10.521,0,0,0-6.136,2.852A7.231,7.231,0,0,0,39.625,14.5a8.089,8.089,0,0,0,1.34,4.987,8.229,8.229,0,0,0,3.326,2.66,35.663,35.663,0,0,0,5.583,1.745l.015,0c1.658.415,2.91.77,3.827,1.088a7.476,7.476,0,0,1,2.713,1.6,4.363,4.363,0,0,1,1.346,3.266A4.924,4.924,0,0,1,55.6,34.085,8.546,8.546,0,0,1,50.675,35.4a7.731,7.731,0,0,1-5.444-1.949A7.423,7.423,0,0,1,43.049,29.6H38.768a10.462,10.462,0,0,0,2.506,5.557,10.959,10.959,0,0,0,6.7,3.514l1.251.211Z" transform="translate(2717.057 2430.5)" fill="#98a4af"/>
      <path id="_5" data-name="$" d="M55.675,46.75h-9.45V41.373a13.684,13.684,0,0,1-7.2-4.23,14.053,14.053,0,0,1-3.4-8.981L35.562,26.6H45.693l.126,1.362a4.866,4.866,0,0,0,1.45,3.287A4.779,4.779,0,0,0,50.675,32.4a5.668,5.668,0,0,0,3.224-.785,1.944,1.944,0,0,0,.876-1.765,1.342,1.342,0,0,0-.4-1.084,4.507,4.507,0,0,0-1.637-.949c-.82-.284-2.019-.624-3.565-1.01a38.56,38.56,0,0,1-6.06-1.9,11.3,11.3,0,0,1-4.524-3.59,10.954,10.954,0,0,1-1.96-6.813,10.227,10.227,0,0,1,3.064-7.486,13.109,13.109,0,0,1,6.536-3.46V-1.3h9.45V3.905A12.855,12.855,0,0,1,61.74,7.8a12.062,12.062,0,0,1,2.835,7.763l.038,1.537H54.561l-.129-1.358a3.165,3.165,0,0,0-1.156-2.305,4.722,4.722,0,0,0-3.051-.887,4.409,4.409,0,0,0-2.615.661,1.466,1.466,0,0,0-.685,1.289,1.508,1.508,0,0,0,.43,1.209,4.742,4.742,0,0,0,1.752,1c.879.3,2.123.629,3.7.982l.016,0a44.116,44.116,0,0,1,6.062,1.817,10.631,10.631,0,0,1,4.509,3.507,10.856,10.856,0,0,1,1.933,6.736,10.99,10.99,0,0,1-3.015,7.86,13.5,13.5,0,0,1-6.635,3.7Zm-6.45-3h3.45v-4.9l1.235-.222a11.073,11.073,0,0,0,6.23-3.084,7.982,7.982,0,0,0,2.185-5.79,7.99,7.99,0,0,0-1.317-4.914,7.573,7.573,0,0,0-3.241-2.543,41.193,41.193,0,0,0-5.63-1.681,40.468,40.468,0,0,1-3.995-1.066A7.7,7.7,0,0,1,45.3,17.891a4.526,4.526,0,0,1-1.37-3.391,4.451,4.451,0,0,1,1.915-3.711A7.282,7.282,0,0,1,50.225,9.55a7.606,7.606,0,0,1,4.949,1.563A5.96,5.96,0,0,1,57.161,14.1h4.278A8.6,8.6,0,0,0,59.46,9.75a10.141,10.141,0,0,0-5.628-3.24l-1.157-.271V1.7h-3.45V6.093l-1.278.191a10.521,10.521,0,0,0-6.136,2.852A7.231,7.231,0,0,0,39.625,14.5a8.089,8.089,0,0,0,1.34,4.987,8.229,8.229,0,0,0,3.326,2.66,35.663,35.663,0,0,0,5.583,1.745l.015,0c1.658.415,2.91.77,3.827,1.088a7.476,7.476,0,0,1,2.713,1.6,4.363,4.363,0,0,1,1.346,3.266A4.924,4.924,0,0,1,55.6,34.085,8.546,8.546,0,0,1,50.675,35.4a7.731,7.731,0,0,1-5.444-1.949A7.423,7.423,0,0,1,43.049,29.6H38.768a10.462,10.462,0,0,0,2.506,5.557,10.959,10.959,0,0,0,6.7,3.514l1.251.211Z" transform="translate(2253.057 2283.275)" fill="#98a4af"/>
      <path id="_6" data-name="$" d="M55.675,46.75h-9.45V41.373a13.684,13.684,0,0,1-7.2-4.23,14.053,14.053,0,0,1-3.4-8.981L35.562,26.6H45.693l.126,1.362a4.866,4.866,0,0,0,1.45,3.287A4.779,4.779,0,0,0,50.675,32.4a5.668,5.668,0,0,0,3.224-.785,1.944,1.944,0,0,0,.876-1.765,1.342,1.342,0,0,0-.4-1.084,4.507,4.507,0,0,0-1.637-.949c-.82-.284-2.019-.624-3.565-1.01a38.56,38.56,0,0,1-6.06-1.9,11.3,11.3,0,0,1-4.524-3.59,10.954,10.954,0,0,1-1.96-6.813,10.227,10.227,0,0,1,3.064-7.486,13.109,13.109,0,0,1,6.536-3.46V-1.3h9.45V3.905A12.855,12.855,0,0,1,61.74,7.8a12.062,12.062,0,0,1,2.835,7.763l.038,1.537H54.561l-.129-1.358a3.165,3.165,0,0,0-1.156-2.305,4.722,4.722,0,0,0-3.051-.887,4.409,4.409,0,0,0-2.615.661,1.466,1.466,0,0,0-.685,1.289,1.508,1.508,0,0,0,.43,1.209,4.742,4.742,0,0,0,1.752,1c.879.3,2.123.629,3.7.982l.016,0a44.116,44.116,0,0,1,6.062,1.817,10.631,10.631,0,0,1,4.509,3.507,10.856,10.856,0,0,1,1.933,6.736,10.99,10.99,0,0,1-3.015,7.86,13.5,13.5,0,0,1-6.635,3.7Zm-6.45-3h3.45v-4.9l1.235-.222a11.073,11.073,0,0,0,6.23-3.084,7.982,7.982,0,0,0,2.185-5.79,7.99,7.99,0,0,0-1.317-4.914,7.573,7.573,0,0,0-3.241-2.543,41.193,41.193,0,0,0-5.63-1.681,40.468,40.468,0,0,1-3.995-1.066A7.7,7.7,0,0,1,45.3,17.891a4.526,4.526,0,0,1-1.37-3.391,4.451,4.451,0,0,1,1.915-3.711A7.282,7.282,0,0,1,50.225,9.55a7.606,7.606,0,0,1,4.949,1.563A5.96,5.96,0,0,1,57.161,14.1h4.278A8.6,8.6,0,0,0,59.46,9.75a10.141,10.141,0,0,0-5.628-3.24l-1.157-.271V1.7h-3.45V6.093l-1.278.191a10.521,10.521,0,0,0-6.136,2.852A7.231,7.231,0,0,0,39.625,14.5a8.089,8.089,0,0,0,1.34,4.987,8.229,8.229,0,0,0,3.326,2.66,35.663,35.663,0,0,0,5.583,1.745l.015,0c1.658.415,2.91.77,3.827,1.088a7.476,7.476,0,0,1,2.713,1.6,4.363,4.363,0,0,1,1.346,3.266A4.924,4.924,0,0,1,55.6,34.085,8.546,8.546,0,0,1,50.675,35.4a7.731,7.731,0,0,1-5.444-1.949A7.423,7.423,0,0,1,43.049,29.6H38.768a10.462,10.462,0,0,0,2.506,5.557,10.959,10.959,0,0,0,6.7,3.514l1.251.211Z" transform="translate(3665.057 2329.25)" fill="#98a4af"/>
      <g id="_Color-4" data-name=" ↳Color" transform="translate(3319.618 2262.95)" fill="none" stroke-miterlimit="10">
        <path d="M37.5,65a24,24,0,0,1-14.522-5.038l4.977-5.93A17.562,17.562,0,0,0,37.5,56.876c11.279,0,20.456-10.935,20.456-24.376H47.73L61.365,16.248,75,32.5H64.774C64.774,50.419,52.537,65,37.5,65ZM13.635,48.748l0,0L0,32.5H10.226C10.226,14.581,22.463,0,37.5,0A24.007,24.007,0,0,1,52.025,5.038l-4.98,5.93A17.562,17.562,0,0,0,37.5,8.124c-11.278,0-20.453,10.935-20.453,24.376H27.274L13.638,48.745Z" stroke="none"/>
        <path d="M 37.5 62 C 40.70113372802734 62 43.81431579589844 61.24760055541992 46.75310134887695 59.76371765136719 C 49.63475036621094 58.30866622924805 52.23368453979492 56.21506500244141 54.47768402099609 53.54104995727539 C 56.75386810302734 50.82868194580078 58.5445671081543 47.66318511962891 59.80006790161133 44.13246536254883 C 61.10958480834961 40.4498176574707 61.77356719970703 36.53608322143555 61.77356719970703 32.5 L 61.77356719970703 29.5 L 68.56697082519531 29.5 L 61.36474990844727 20.91567993164062 L 54.16252517700195 29.5 L 60.9559326171875 29.5 L 60.9559326171875 32.5 C 60.9559326171875 47.59513473510742 50.43365097045898 59.87591552734375 37.5 59.87591552734375 C 34.44004821777344 59.87591552734375 31.42852020263672 59.18389511108398 28.66010284423828 57.85771179199219 L 27.44263648986816 59.3084831237793 C 30.5958194732666 61.07692337036133 34.02249145507812 62 37.5 62 M 13.63551139831543 44.08158874511719 L 20.83868980407715 35.5 L 14.04713344573975 35.5 L 14.04713344573975 32.5 C 14.04713344573975 17.40486717224121 24.56805038452148 5.124083518981934 37.5 5.124083518981934 C 40.5601921081543 5.124083518981934 43.57199859619141 5.816234111785889 46.34059524536133 7.14262056350708 L 47.55946731567383 5.691070079803467 C 44.4061164855957 3.922903299331665 40.97877502441406 3 37.5 3 C 34.29886627197266 3 31.18568420410156 3.752399921417236 28.24690055847168 5.236283302307129 C 25.36523246765137 6.691333293914795 22.76631736755371 8.784933090209961 20.52231597900391 11.45895004272461 C 18.24613380432129 14.1713171005249 16.4554328918457 17.33681678771973 15.19993305206299 20.86753273010254 C 13.89041709899902 24.55018424987793 13.22643375396729 28.46391677856445 13.22643375396729 32.5 L 13.22643375396729 35.5 L 6.433953285217285 35.5 L 13.63551139831543 44.08158874511719 M 37.5 65 C 32.36083221435547 65 27.3392162322998 63.25781631469727 22.9780330657959 59.96175003051758 L 27.95471572875977 54.0313835144043 C 30.83404922485352 55.89206695556641 34.13335037231445 56.87591552734375 37.5 56.87591552734375 C 48.77944946289062 56.87591552734375 57.9559326171875 45.94093322753906 57.9559326171875 32.5 L 47.72949981689453 32.5 L 61.36474990844727 16.24816703796387 L 75 32.5 L 64.77356719970703 32.5 C 64.77356719970703 50.41873168945312 52.53715133666992 65 37.5 65 Z M 13.63525009155273 48.74813461303711 L 13.63283348083496 48.74528503417969 L 0 32.5 L 10.22643375396729 32.5 C 10.22643375396729 14.58126640319824 22.46283340454102 0 37.5 0 C 42.64116668701172 0 47.66383361816406 1.742183327674866 52.02503204345703 5.038249969482422 L 47.04528427124023 10.9686164855957 C 44.16595077514648 9.107933044433594 40.86663436889648 8.124083518981934 37.5 8.124083518981934 C 26.22224998474121 8.124083518981934 17.04713249206543 19.05906677246094 17.04713249206543 32.5 L 27.27356719970703 32.5 L 13.63525009155273 48.74813461303711 Z" stroke="none" fill="#98a4af"/>
      </g>
      <g id="_Color-5" data-name=" ↳Color" transform="translate(2451 2254.475)" fill="none" stroke-miterlimit="10">
        <path d="M37.5,65a24,24,0,0,1-14.522-5.038l4.977-5.93A17.562,17.562,0,0,0,37.5,56.876c11.279,0,20.456-10.935,20.456-24.376H47.73L61.365,16.248,75,32.5H64.774C64.774,50.419,52.537,65,37.5,65ZM13.635,48.748l0,0L0,32.5H10.226C10.226,14.581,22.463,0,37.5,0A24.007,24.007,0,0,1,52.025,5.038l-4.98,5.93A17.562,17.562,0,0,0,37.5,8.124c-11.278,0-20.453,10.935-20.453,24.376H27.274L13.638,48.745Z" stroke="none"/>
        <path d="M 37.5 62 C 40.70113372802734 62 43.81431579589844 61.24760055541992 46.75310134887695 59.76371765136719 C 49.63475036621094 58.30866622924805 52.23368453979492 56.21506500244141 54.47768402099609 53.54104995727539 C 56.75386810302734 50.82868194580078 58.5445671081543 47.66318511962891 59.80006790161133 44.13246536254883 C 61.10958480834961 40.4498176574707 61.77356719970703 36.53608322143555 61.77356719970703 32.5 L 61.77356719970703 29.5 L 68.56697082519531 29.5 L 61.36474990844727 20.91567993164062 L 54.16252517700195 29.5 L 60.9559326171875 29.5 L 60.9559326171875 32.5 C 60.9559326171875 47.59513473510742 50.43365097045898 59.87591552734375 37.5 59.87591552734375 C 34.44004821777344 59.87591552734375 31.42852020263672 59.18389511108398 28.66010284423828 57.85771179199219 L 27.44263648986816 59.3084831237793 C 30.5958194732666 61.07692337036133 34.02249145507812 62 37.5 62 M 13.63551139831543 44.08158874511719 L 20.83868980407715 35.5 L 14.04713344573975 35.5 L 14.04713344573975 32.5 C 14.04713344573975 17.40486717224121 24.56805038452148 5.124083518981934 37.5 5.124083518981934 C 40.5601921081543 5.124083518981934 43.57199859619141 5.816234111785889 46.34059524536133 7.14262056350708 L 47.55946731567383 5.691070079803467 C 44.4061164855957 3.922903299331665 40.97877502441406 3 37.5 3 C 34.29886627197266 3 31.18568420410156 3.752399921417236 28.24690055847168 5.236283302307129 C 25.36523246765137 6.691333293914795 22.76631736755371 8.784933090209961 20.52231597900391 11.45895004272461 C 18.24613380432129 14.1713171005249 16.4554328918457 17.33681678771973 15.19993305206299 20.86753273010254 C 13.89041709899902 24.55018424987793 13.22643375396729 28.46391677856445 13.22643375396729 32.5 L 13.22643375396729 35.5 L 6.433953285217285 35.5 L 13.63551139831543 44.08158874511719 M 37.5 65 C 32.36083221435547 65 27.3392162322998 63.25781631469727 22.9780330657959 59.96175003051758 L 27.95471572875977 54.0313835144043 C 30.83404922485352 55.89206695556641 34.13335037231445 56.87591552734375 37.5 56.87591552734375 C 48.77944946289062 56.87591552734375 57.9559326171875 45.94093322753906 57.9559326171875 32.5 L 47.72949981689453 32.5 L 61.36474990844727 16.24816703796387 L 75 32.5 L 64.77356719970703 32.5 C 64.77356719970703 50.41873168945312 52.53715133666992 65 37.5 65 Z M 13.63525009155273 48.74813461303711 L 13.63283348083496 48.74528503417969 L 0 32.5 L 10.22643375396729 32.5 C 10.22643375396729 14.58126640319824 22.46283340454102 0 37.5 0 C 42.64116668701172 0 47.66383361816406 1.742183327674866 52.02503204345703 5.038249969482422 L 47.04528427124023 10.9686164855957 C 44.16595077514648 9.107933044433594 40.86663436889648 8.124083518981934 37.5 8.124083518981934 C 26.22224998474121 8.124083518981934 17.04713249206543 19.05906677246094 17.04713249206543 32.5 L 27.27356719970703 32.5 L 13.63525009155273 48.74813461303711 Z" stroke="none" fill="#98a4af"/>
      </g>
      <path id="Path_407" data-name="Path 407" d="M30.5,30.5A13.25,13.25,0,1,0,17.25,17.25,13.246,13.246,0,0,0,30.5,30.5Zm0,6.625c-8.844,0-26.5,4.439-26.5,13.25V57H57V50.375C57,41.564,39.344,37.125,30.5,37.125Z" transform="translate(2710.5 2299.525)" fill="none" stroke="#98a4af" stroke-width="3"/>
    </g>
  </g>
</svg>
