<svg xmlns="http://www.w3.org/2000/svg" width="1920" height="467" viewBox="0 0 1920 467">
  <g id="Group_45" data-name="Group 45" transform="translate(-2018 -191)" opacity="0.15">
    <rect id="Rectangle_20" data-name="Rectangle 20" width="1920" height="467" transform="translate(2018 191)" fill="#f9f9f9"/>
    <g id="Group_42" data-name="Group 42" transform="translate(649.721 -269.568)">
      <g id="_Color" data-name=" ↳Color" transform="translate(1378.279 667.168)" fill="none" stroke-miterlimit="10">
        <path d="M38.18,66.852H25.153a1.667,1.667,0,0,1-1.631-1.42L22.3,56.574a23.617,23.617,0,0,1-5.5-3.259L8.7,56.658a1.738,1.738,0,0,1-.564.094,1.6,1.6,0,0,1-1.43-.846L.193,44.333A1.758,1.758,0,0,1,.6,42.2l6.88-5.515a21.718,21.718,0,0,1-.244-3.259,21.322,21.322,0,0,1,.284-3.259L.642,24.653a1.645,1.645,0,0,1-.406-2.131L6.749,10.946a1.616,1.616,0,0,1,1.415-.863,1.561,1.561,0,0,1,.579.111l8.1,3.344a24.4,24.4,0,0,1,5.5-3.259L23.565,1.42A1.6,1.6,0,0,1,25.153,0H38.18A1.642,1.642,0,0,1,39.81,1.42l1.221,8.859a23.732,23.732,0,0,1,5.5,3.259l8.1-3.344a1.738,1.738,0,0,1,.564-.094,1.6,1.6,0,0,1,1.43.846L63.14,22.522a1.756,1.756,0,0,1-.409,2.131l-6.88,5.515a21.352,21.352,0,0,1,.244,3.259,27.969,27.969,0,0,1-.2,3.259l6.8,5.515a1.645,1.645,0,0,1,.406,2.131L56.584,55.906a1.616,1.616,0,0,1-1.415.863,1.561,1.561,0,0,1-.579-.111l-8.1-3.344a24.168,24.168,0,0,1-5.5,3.259l-1.221,8.859A1.558,1.558,0,0,1,38.18,66.852Zm-6.513-45.96a12.539,12.539,0,0,0,0,25.07,12.539,12.539,0,0,0,0-25.07Z" stroke="none"/>
        <path d="M 36.95721054077148 63.85245513916016 L 38.25142288208008 54.46559143066406 L 39.83357620239258 53.80521011352539 C 41.460205078125 53.12625503540039 43.07842254638672 52.16459274291992 44.64326858520508 50.94696044921875 L 46.01873016357422 49.87668609619141 L 54.55302047729492 53.39785003662109 L 59.93702697753906 43.8314208984375 L 52.71962356567383 37.97771453857422 L 52.91085433959961 36.33914566040039 C 53.03489685058594 35.27616119384766 53.09520721435547 34.32385635375977 53.09520721435547 33.42779159545898 C 53.09520721435547 32.4638557434082 53.02494430541992 31.52202415466309 52.88636016845703 30.62845420837402 L 52.62039184570312 28.91353225708008 L 59.97560119628906 23.01692581176758 L 54.59290313720703 13.45470523834229 L 46.05659103393555 16.97802352905273 L 44.67953109741211 15.90042400360107 C 43.12637710571289 14.68505477905273 41.55351257324219 13.75103950500488 39.8710823059082 13.04503917694092 L 38.29365158081055 12.38311576843262 L 36.99996566772461 3.000008344650269 L 26.37589454650879 3.000008344650269 L 25.08205223083496 12.38420867919922 L 23.50323677062988 13.04568576812744 C 21.87508392333984 13.72783946990967 20.25471496582031 14.69073104858398 18.68709945678711 15.90760803222656 L 17.31223678588867 16.97488594055176 L 8.780208587646484 13.4546537399292 L 3.399132966995239 23.01846694946289 L 10.75243759155273 28.91354751586914 L 10.48643684387207 30.62849998474121 C 10.31919097900391 31.70673179626465 10.23789882659912 32.62239456176758 10.23789882659912 33.42779159545898 C 10.23789882659912 34.37551498413086 10.31019115447998 35.34397888183594 10.44696044921875 36.22846984863281 L 10.71200656890869 37.94262313842773 L 3.35761570930481 43.83858108520508 L 8.740090370178223 53.39779281616211 L 17.27651405334473 49.87442398071289 L 18.6535758972168 50.95200729370117 C 20.21413040161133 52.17319488525391 21.7857608795166 53.10667037963867 23.45826721191406 53.80582427978516 L 25.03909873962402 54.46664047241211 L 26.3331413269043 63.85245513916016 L 36.95721054077148 63.85245513916016 M 31.66656112670898 17.89276313781738 C 40.05575942993164 17.89276313781738 46.88088226318359 24.86174774169922 46.88088226318359 33.42779159545898 C 46.88088226318359 41.99383926391602 40.05575942993164 48.96282196044922 31.66656112670898 48.96282196044922 C 23.27734565734863 48.96282196044922 16.45222091674805 41.99383926391602 16.45222091674805 33.42779159545898 C 16.45222091674805 24.86174774169922 23.27734565734863 17.89276313781738 31.66656112670898 17.89276313781738 M 38.17983627319336 66.85245513916016 L 25.15326881408691 66.85245513916016 C 24.34528350830078 66.85245513916016 23.68999099731445 66.28195953369141 23.52265167236328 65.43286895751953 L 22.30122184753418 56.57371520996094 C 20.37651443481445 55.76914596557617 18.57794570922852 54.70217895507812 16.80477523803711 53.31462478637695 L 8.703621864318848 56.65834808349609 C 8.521190643310547 56.72072982788086 8.33159065246582 56.75234603881836 8.13999080657959 56.75234603881836 C 7.530467987060547 56.75234603881836 6.995744705200195 56.43605422973633 6.70963716506958 55.9062385559082 L 0.1932833641767502 44.33327102661133 C -0.1771781742572784 43.61404037475586 -0.001255098730325699 42.69797897338867 0.602467954158783 42.20231628417969 L 7.48219108581543 36.6869010925293 C 7.321944713592529 35.65056228637695 7.237898826599121 34.52245330810547 7.237898826599121 33.42779159545898 C 7.237898826599121 32.46677780151367 7.330790996551514 31.40070152282715 7.521883487701416 30.16868591308594 L 0.6421602964401245 24.65327072143555 C -0.007193560246378183 24.15266990661621 -0.1742243319749832 23.27639389038086 0.2360372096300125 22.52231597900391 L 6.749329566955566 10.94620800018311 C 7.036914348602295 10.4136848449707 7.578960418701172 10.08282375335693 8.163960456848145 10.08282375335693 C 8.362698554992676 10.08282375335693 8.557621955871582 10.12025451660156 8.743313789367676 10.19411563873291 L 16.84751319885254 13.53782367706299 C 18.62429809570312 12.15856266021729 20.47466850280762 11.06191635131836 22.34395980834961 10.27873134613037 L 23.56540679931641 1.419592976570129 C 23.6878833770752 0.5837468504905701 24.34080696105957 8.370267096324824e-06 25.15326881408691 8.370267096324824e-06 L 38.17983627319336 8.370267096324824e-06 C 39.00414657592773 8.370267096324824e-06 39.68994522094727 0.5970237255096436 39.81045150756836 1.419592976570129 L 41.03189849853516 10.27873134613037 C 42.96500778198242 11.08991622924805 44.76357650756836 12.1568546295166 46.52832794189453 13.53782367706299 L 54.62948226928711 10.19411563873291 C 54.81192779541016 10.13171577453613 55.00151443481445 10.10010051727295 55.193115234375 10.10010051727295 C 55.80263900756836 10.10010051727295 56.33736038208008 10.41640853881836 56.62348175048828 10.94620800018311 L 63.13982009887695 22.52231597900391 C 63.51143646240234 23.24060821533203 63.33552932739258 24.15666961669922 62.73065185546875 24.65327072143555 L 55.85091400146484 30.16868591308594 C 56.01343536376953 31.21660804748535 56.09520721435547 32.31422424316406 56.09520721435547 33.42779159545898 C 56.09520721435547 34.44114685058594 56.02829742431641 35.50720977783203 55.89062118530273 36.6869010925293 L 62.69094467163086 42.20231628417969 C 63.34028244018555 42.70288467407227 63.50734329223633 43.57917785644531 63.09706878662109 44.33327102661133 L 56.58377456665039 55.9062385559082 C 56.29623794555664 56.4387321472168 55.75419235229492 56.76959228515625 55.16915893554688 56.76962280273438 C 54.97043609619141 56.76962280273438 54.7755126953125 56.73219299316406 54.58979034423828 56.65834808349609 L 46.48559188842773 53.31462478637695 C 44.70985412597656 54.69636154174805 42.85948181152344 55.79303741455078 40.98914337158203 56.57371520996094 L 39.7677001953125 65.43286895751953 C 39.68966674804688 66.25537872314453 39.02185440063477 66.85245513916016 38.17983627319336 66.85245513916016 Z M 31.66656112670898 20.89276313781738 C 24.93154525756836 20.89276313781738 19.45222091674805 26.51594734191895 19.45222091674805 33.42779159545898 C 19.45222091674805 40.33963775634766 24.93154525756836 45.96282196044922 31.66656112670898 45.96282196044922 C 38.40157699584961 45.96282196044922 43.88088226318359 40.33963775634766 43.88088226318359 33.42779159545898 C 43.88088226318359 26.51594734191895 38.40157699584961 20.89276313781738 31.66656112670898 20.89276313781738 Z" stroke="none" fill="#1976d2"/>
      </g>
      <g id="_Color-2" data-name=" ↳Color" transform="translate(1632.209 566.515)" fill="none" stroke-miterlimit="10">
        <path d="M35.186,63.334l-5.1-4.556C11.963,42.66,0,32.029,0,18.983A18.984,18.984,0,0,1,19.352,0,21.24,21.24,0,0,1,35.186,7.214,21.24,21.24,0,0,1,51.019,0,18.984,18.984,0,0,1,70.371,18.983c0,13.046-11.963,23.677-30.084,39.83Z" stroke="none"/>
        <path d="M 35.19309616088867 59.31864166259766 L 38.4300537109375 56.44928359985352 C 47.1981201171875 48.6334342956543 54.77048873901367 41.88341903686523 59.858154296875 35.76617050170898 C 65.053955078125 29.51888465881348 67.37100219726562 24.34273529052734 67.37100219726562 18.98291969299316 C 67.37100219726562 14.65383529663086 65.69727325439453 10.62788581848145 62.65812301635742 7.646702289581299 C 59.60338973999023 4.650235652923584 55.46985626220703 3.000002145767212 51.01897048950195 3.000002145767212 C 45.88258743286133 3.000002145767212 40.81042098999023 5.310352325439453 37.4509391784668 9.180169105529785 L 35.18550491333008 11.78975200653076 L 32.92007064819336 9.180169105529785 C 29.56058883666992 5.310352325439453 24.48842239379883 3.000002145767212 19.35202217102051 3.000002145767212 C 14.90113830566406 3.000002145767212 10.76762199401855 4.650235652923584 7.712888240814209 7.646685600280762 C 4.673738479614258 10.62786865234375 3.000005006790161 14.65381908416748 3.000005006790161 18.98291969299316 C 3.000005006790161 24.35208511352539 5.324904918670654 29.53635215759277 10.53833866119385 35.79248428344727 C 15.64273834228516 41.91777038574219 23.23813819885254 48.67388534545898 32.03288650512695 56.49680328369141 L 32.08180618286133 56.54031753540039 L 35.19309616088867 59.31864166259766 M 35.18550491333008 63.33390045166016 L 30.08360481262207 58.77800369262695 C 11.96307182312012 42.65978622436523 4.913330030831276e-06 32.02935028076172 4.913330030831276e-06 18.98291969299316 C 4.913330030831276e-06 8.352485656738281 8.514887809753418 2.133178668373148e-06 19.35202217102051 2.133178668373148e-06 C 25.47430419921875 2.133178668373148e-06 31.35028839111328 2.795668840408325 35.18550491333008 7.213501930236816 C 39.02072143554688 2.795668840408325 44.89670562744141 2.133178668373148e-06 51.01897048950195 2.133178668373148e-06 C 61.85610580444336 2.133178668373148e-06 70.37100219726562 8.352485656738281 70.37100219726562 18.98291969299316 C 70.37100219726562 32.02935028076172 58.40793991088867 42.65978622436523 40.28740310668945 58.81251907348633 L 35.18550491333008 63.33390045166016 Z" stroke="none" fill="#1976d2"/>
      </g>
      <g id="_Color-3" data-name=" ↳Color" transform="translate(2034.298 608.314)" fill="none" stroke-miterlimit="10">
        <path d="M35.186,63.334l-5.1-4.556C11.963,42.66,0,32.029,0,18.983A18.984,18.984,0,0,1,19.352,0,21.24,21.24,0,0,1,35.186,7.214,21.24,21.24,0,0,1,51.019,0,18.984,18.984,0,0,1,70.371,18.983c0,13.046-11.963,23.677-30.084,39.83Z" stroke="none"/>
        <path d="M 35.19309616088867 59.31864166259766 L 38.4300537109375 56.44928359985352 C 47.1981201171875 48.6334342956543 54.77048873901367 41.88341903686523 59.858154296875 35.76617050170898 C 65.053955078125 29.51888465881348 67.37100219726562 24.34273529052734 67.37100219726562 18.98291969299316 C 67.37100219726562 14.65383529663086 65.69727325439453 10.62788581848145 62.65812301635742 7.646702289581299 C 59.60338973999023 4.650235652923584 55.46985626220703 3.000002145767212 51.01897048950195 3.000002145767212 C 45.88258743286133 3.000002145767212 40.81042098999023 5.310352325439453 37.4509391784668 9.180169105529785 L 35.18550491333008 11.78975200653076 L 32.92007064819336 9.180169105529785 C 29.56058883666992 5.310352325439453 24.48842239379883 3.000002145767212 19.35202217102051 3.000002145767212 C 14.90113830566406 3.000002145767212 10.76762199401855 4.650235652923584 7.712888240814209 7.646685600280762 C 4.673738479614258 10.62786865234375 3.000005006790161 14.65381908416748 3.000005006790161 18.98291969299316 C 3.000005006790161 24.35208511352539 5.324904918670654 29.53635215759277 10.53833866119385 35.79248428344727 C 15.64273834228516 41.91777038574219 23.23813819885254 48.67388534545898 32.03288650512695 56.49680328369141 L 32.08180618286133 56.54031753540039 L 35.19309616088867 59.31864166259766 M 35.18550491333008 63.33390045166016 L 30.08360481262207 58.77800369262695 C 11.96307182312012 42.65978622436523 4.913330030831276e-06 32.02935028076172 4.913330030831276e-06 18.98291969299316 C 4.913330030831276e-06 8.352485656738281 8.514887809753418 2.133178668373148e-06 19.35202217102051 2.133178668373148e-06 C 25.47430419921875 2.133178668373148e-06 31.35028839111328 2.795668840408325 35.18550491333008 7.213501930236816 C 39.02072143554688 2.795668840408325 44.89670562744141 2.133178668373148e-06 51.01897048950195 2.133178668373148e-06 C 61.85610580444336 2.133178668373148e-06 70.37100219726562 8.352485656738281 70.37100219726562 18.98291969299316 C 70.37100219726562 32.02935028076172 58.40793991088867 42.65978622436523 40.28740310668945 58.81251907348633 L 35.18550491333008 63.33390045166016 Z" stroke="none" fill="#1976d2"/>
      </g>
      <g id="_Color-4" data-name=" ↳Color" transform="translate(1419.376 864.234)" fill="none" stroke-miterlimit="10">
        <path d="M35.186,63.334l-5.1-4.556C11.963,42.66,0,32.029,0,18.983A18.984,18.984,0,0,1,19.352,0,21.24,21.24,0,0,1,35.186,7.214,21.24,21.24,0,0,1,51.019,0,18.984,18.984,0,0,1,70.371,18.983c0,13.046-11.963,23.677-30.084,39.83Z" stroke="none"/>
        <path d="M 35.19309616088867 59.31864166259766 L 38.4300537109375 56.44928359985352 C 47.1981201171875 48.6334342956543 54.77048873901367 41.88341903686523 59.858154296875 35.76617050170898 C 65.053955078125 29.51888465881348 67.37100219726562 24.34273529052734 67.37100219726562 18.98291969299316 C 67.37100219726562 14.65383529663086 65.69727325439453 10.62788581848145 62.65812301635742 7.646702289581299 C 59.60338973999023 4.650235652923584 55.46985626220703 3.000002145767212 51.01897048950195 3.000002145767212 C 45.88258743286133 3.000002145767212 40.81042098999023 5.310352325439453 37.4509391784668 9.180169105529785 L 35.18550491333008 11.78975200653076 L 32.92007064819336 9.180169105529785 C 29.56058883666992 5.310352325439453 24.48842239379883 3.000002145767212 19.35202217102051 3.000002145767212 C 14.90113830566406 3.000002145767212 10.76762199401855 4.650235652923584 7.712888240814209 7.646685600280762 C 4.673738479614258 10.62786865234375 3.000005006790161 14.65381908416748 3.000005006790161 18.98291969299316 C 3.000005006790161 24.35208511352539 5.324904918670654 29.53635215759277 10.53833866119385 35.79248428344727 C 15.64273834228516 41.91777038574219 23.23813819885254 48.67388534545898 32.03288650512695 56.49680328369141 L 32.08180618286133 56.54031753540039 L 35.19309616088867 59.31864166259766 M 35.18550491333008 63.33390045166016 L 30.08360481262207 58.77800369262695 C 11.96307182312012 42.65978622436523 4.913330030831276e-06 32.02935028076172 4.913330030831276e-06 18.98291969299316 C 4.913330030831276e-06 8.352485656738281 8.514887809753418 2.133178668373148e-06 19.35202217102051 2.133178668373148e-06 C 25.47430419921875 2.133178668373148e-06 31.35028839111328 2.795668840408325 35.18550491333008 7.213501930236816 C 39.02072143554688 2.795668840408325 44.89670562744141 2.133178668373148e-06 51.01897048950195 2.133178668373148e-06 C 61.85610580444336 2.133178668373148e-06 70.37100219726562 8.352485656738281 70.37100219726562 18.98291969299316 C 70.37100219726562 32.02935028076172 58.40793991088867 42.65978622436523 40.28740310668945 58.81251907348633 L 35.18550491333008 63.33390045166016 Z" stroke="none" fill="#1976d2"/>
      </g>
      <path id="Path_400" data-name="Path 400" d="M32.148,32.148A14.074,14.074,0,1,0,18.074,18.074,14.07,14.07,0,0,0,32.148,32.148Zm0,7.037C22.754,39.186,4,43.9,4,53.26V60.3H60.3V53.26C60.3,43.9,41.543,39.186,32.148,39.186Z" transform="translate(1874.507 773.628)" fill="none" stroke="#1976d2" stroke-width="3"/>
      <path id="Path_401" data-name="Path 401" d="M32.148,32.148A14.074,14.074,0,1,0,18.074,18.074,14.07,14.07,0,0,0,32.148,32.148Zm0,7.037C22.754,39.186,4,43.9,4,53.26V60.3H60.3V53.26C60.3,43.9,41.543,39.186,32.148,39.186Z" transform="translate(1461.677 479.383)" fill="none" stroke="#1976d2" stroke-width="3"/>
      <path id="Path_402" data-name="Path 402" d="M32.148,32.148A14.074,14.074,0,1,0,18.074,18.074,14.07,14.07,0,0,0,32.148,32.148Zm0,7.037C22.754,39.186,4,43.9,4,53.26V60.3H60.3V53.26C60.3,43.9,41.543,39.186,32.148,39.186Z" transform="translate(1748.037 848.187)" fill="none" stroke="#1976d2" stroke-width="3"/>
      <g id="_Color-5" data-name=" ↳Color" transform="translate(1878.507 499.662)" fill="none" stroke-miterlimit="10">
        <path d="M38.18,66.852H25.153a1.667,1.667,0,0,1-1.631-1.42L22.3,56.574a23.617,23.617,0,0,1-5.5-3.259L8.7,56.658a1.738,1.738,0,0,1-.564.094,1.6,1.6,0,0,1-1.43-.846L.193,44.333A1.758,1.758,0,0,1,.6,42.2l6.88-5.515a21.718,21.718,0,0,1-.244-3.259,21.322,21.322,0,0,1,.284-3.259L.642,24.653a1.645,1.645,0,0,1-.406-2.131L6.749,10.946a1.616,1.616,0,0,1,1.415-.863,1.561,1.561,0,0,1,.579.111l8.1,3.344a24.4,24.4,0,0,1,5.5-3.259L23.565,1.42A1.6,1.6,0,0,1,25.153,0H38.18A1.642,1.642,0,0,1,39.81,1.42l1.221,8.859a23.732,23.732,0,0,1,5.5,3.259l8.1-3.344a1.738,1.738,0,0,1,.564-.094,1.6,1.6,0,0,1,1.43.846L63.14,22.522a1.756,1.756,0,0,1-.409,2.131l-6.88,5.515a21.352,21.352,0,0,1,.244,3.259,27.969,27.969,0,0,1-.2,3.259l6.8,5.515a1.645,1.645,0,0,1,.406,2.131L56.584,55.906a1.616,1.616,0,0,1-1.415.863,1.561,1.561,0,0,1-.579-.111l-8.1-3.344a24.168,24.168,0,0,1-5.5,3.259l-1.221,8.859A1.558,1.558,0,0,1,38.18,66.852Zm-6.513-45.96a12.539,12.539,0,0,0,0,25.07,12.539,12.539,0,0,0,0-25.07Z" stroke="none"/>
        <path d="M 36.95721054077148 63.85245513916016 L 38.25142288208008 54.46559143066406 L 39.83357620239258 53.80521011352539 C 41.460205078125 53.12625503540039 43.07842254638672 52.16459274291992 44.64326858520508 50.94696044921875 L 46.01873016357422 49.87668609619141 L 54.55302047729492 53.39785003662109 L 59.93702697753906 43.8314208984375 L 52.71962356567383 37.97771453857422 L 52.91085433959961 36.33914566040039 C 53.03489685058594 35.27616119384766 53.09520721435547 34.32385635375977 53.09520721435547 33.42779159545898 C 53.09520721435547 32.4638557434082 53.02494430541992 31.52202415466309 52.88636016845703 30.62845420837402 L 52.62039184570312 28.91353225708008 L 59.97560119628906 23.01692581176758 L 54.59290313720703 13.45470523834229 L 46.05659103393555 16.97802352905273 L 44.67953109741211 15.90042400360107 C 43.12637710571289 14.68505477905273 41.55351257324219 13.75103950500488 39.8710823059082 13.04503917694092 L 38.29365158081055 12.38311576843262 L 36.99996566772461 3.000008344650269 L 26.37589454650879 3.000008344650269 L 25.08205223083496 12.38420867919922 L 23.50323677062988 13.04568576812744 C 21.87508392333984 13.72783946990967 20.25471496582031 14.69073104858398 18.68709945678711 15.90760803222656 L 17.31223678588867 16.97488594055176 L 8.780208587646484 13.4546537399292 L 3.399132966995239 23.01846694946289 L 10.75243759155273 28.91354751586914 L 10.48643684387207 30.62849998474121 C 10.31919097900391 31.70673179626465 10.23789882659912 32.62239456176758 10.23789882659912 33.42779159545898 C 10.23789882659912 34.37551498413086 10.31019115447998 35.34397888183594 10.44696044921875 36.22846984863281 L 10.71200656890869 37.94262313842773 L 3.35761570930481 43.83858108520508 L 8.740090370178223 53.39779281616211 L 17.27651405334473 49.87442398071289 L 18.6535758972168 50.95200729370117 C 20.21413040161133 52.17319488525391 21.7857608795166 53.10667037963867 23.45826721191406 53.80582427978516 L 25.03909873962402 54.46664047241211 L 26.3331413269043 63.85245513916016 L 36.95721054077148 63.85245513916016 M 31.66656112670898 17.89276313781738 C 40.05575942993164 17.89276313781738 46.88088226318359 24.86174774169922 46.88088226318359 33.42779159545898 C 46.88088226318359 41.99383926391602 40.05575942993164 48.96282196044922 31.66656112670898 48.96282196044922 C 23.27734565734863 48.96282196044922 16.45222091674805 41.99383926391602 16.45222091674805 33.42779159545898 C 16.45222091674805 24.86174774169922 23.27734565734863 17.89276313781738 31.66656112670898 17.89276313781738 M 38.17983627319336 66.85245513916016 L 25.15326881408691 66.85245513916016 C 24.34528350830078 66.85245513916016 23.68999099731445 66.28195953369141 23.52265167236328 65.43286895751953 L 22.30122184753418 56.57371520996094 C 20.37651443481445 55.76914596557617 18.57794570922852 54.70217895507812 16.80477523803711 53.31462478637695 L 8.703621864318848 56.65834808349609 C 8.521190643310547 56.72072982788086 8.33159065246582 56.75234603881836 8.13999080657959 56.75234603881836 C 7.530467987060547 56.75234603881836 6.995744705200195 56.43605422973633 6.70963716506958 55.9062385559082 L 0.1932833641767502 44.33327102661133 C -0.1771781742572784 43.61404037475586 -0.001255098730325699 42.69797897338867 0.602467954158783 42.20231628417969 L 7.48219108581543 36.6869010925293 C 7.321944713592529 35.65056228637695 7.237898826599121 34.52245330810547 7.237898826599121 33.42779159545898 C 7.237898826599121 32.46677780151367 7.330790996551514 31.40070152282715 7.521883487701416 30.16868591308594 L 0.6421602964401245 24.65327072143555 C -0.007193560246378183 24.15266990661621 -0.1742243319749832 23.27639389038086 0.2360372096300125 22.52231597900391 L 6.749329566955566 10.94620800018311 C 7.036914348602295 10.4136848449707 7.578960418701172 10.08282375335693 8.163960456848145 10.08282375335693 C 8.362698554992676 10.08282375335693 8.557621955871582 10.12025451660156 8.743313789367676 10.19411563873291 L 16.84751319885254 13.53782367706299 C 18.62429809570312 12.15856266021729 20.47466850280762 11.06191635131836 22.34395980834961 10.27873134613037 L 23.56540679931641 1.419592976570129 C 23.6878833770752 0.5837468504905701 24.34080696105957 8.370267096324824e-06 25.15326881408691 8.370267096324824e-06 L 38.17983627319336 8.370267096324824e-06 C 39.00414657592773 8.370267096324824e-06 39.68994522094727 0.5970237255096436 39.81045150756836 1.419592976570129 L 41.03189849853516 10.27873134613037 C 42.96500778198242 11.08991622924805 44.76357650756836 12.1568546295166 46.52832794189453 13.53782367706299 L 54.62948226928711 10.19411563873291 C 54.81192779541016 10.13171577453613 55.00151443481445 10.10010051727295 55.193115234375 10.10010051727295 C 55.80263900756836 10.10010051727295 56.33736038208008 10.41640853881836 56.62348175048828 10.94620800018311 L 63.13982009887695 22.52231597900391 C 63.51143646240234 23.24060821533203 63.33552932739258 24.15666961669922 62.73065185546875 24.65327072143555 L 55.85091400146484 30.16868591308594 C 56.01343536376953 31.21660804748535 56.09520721435547 32.31422424316406 56.09520721435547 33.42779159545898 C 56.09520721435547 34.44114685058594 56.02829742431641 35.50720977783203 55.89062118530273 36.6869010925293 L 62.69094467163086 42.20231628417969 C 63.34028244018555 42.70288467407227 63.50734329223633 43.57917785644531 63.09706878662109 44.33327102661133 L 56.58377456665039 55.9062385559082 C 56.29623794555664 56.4387321472168 55.75419235229492 56.76959228515625 55.16915893554688 56.76962280273438 C 54.97043609619141 56.76962280273438 54.7755126953125 56.73219299316406 54.58979034423828 56.65834808349609 L 46.48559188842773 53.31462478637695 C 44.70985412597656 54.69636154174805 42.85948181152344 55.79303741455078 40.98914337158203 56.57371520996094 L 39.7677001953125 65.43286895751953 C 39.68966674804688 66.25537872314453 39.02185440063477 66.85245513916016 38.17983627319336 66.85245513916016 Z M 31.66656112670898 20.89276313781738 C 24.93154525756836 20.89276313781738 19.45222091674805 26.51594734191895 19.45222091674805 33.42779159545898 C 19.45222091674805 40.33963775634766 24.93154525756836 45.96282196044922 31.66656112670898 45.96282196044922 C 38.40157699584961 45.96282196044922 43.88088226318359 40.33963775634766 43.88088226318359 33.42779159545898 C 43.88088226318359 26.51594734191895 38.40157699584961 20.89276313781738 31.66656112670898 20.89276313781738 Z" stroke="none" fill="#1976d2"/>
      </g>
    </g>
    <g id="Group_43" data-name="Group 43" transform="translate(1244 -247.383)">
      <g id="_Color-6" data-name=" ↳Color" transform="translate(1378.279 648.314)" fill="none" stroke-miterlimit="10">
        <path d="M34.263,59.994H22.573A1.5,1.5,0,0,1,21.11,58.72l-1.1-7.95a21.2,21.2,0,0,1-4.933-2.925l-7.27,3a1.56,1.56,0,0,1-.506.084,1.436,1.436,0,0,1-1.284-.759L.173,39.785a1.578,1.578,0,0,1,.367-1.912l6.174-4.95A19.49,19.49,0,0,1,6.5,30a19.134,19.134,0,0,1,.255-2.925L.576,22.124a1.476,1.476,0,0,1-.364-1.912L6.057,9.823a1.45,1.45,0,0,1,1.27-.775,1.4,1.4,0,0,1,.52.1l7.273,3a21.9,21.9,0,0,1,4.933-2.925l1.1-7.95A1.435,1.435,0,0,1,22.573,0h11.69a1.474,1.474,0,0,1,1.463,1.274l1.1,7.95a21.3,21.3,0,0,1,4.933,2.925l7.27-3a1.56,1.56,0,0,1,.506-.084,1.436,1.436,0,0,1,1.284.759l5.848,10.389a1.576,1.576,0,0,1-.367,1.912l-6.174,4.95A19.162,19.162,0,0,1,50.341,30a25.1,25.1,0,0,1-.184,2.925l6.1,4.95a1.476,1.476,0,0,1,.364,1.912L50.779,50.171a1.45,1.45,0,0,1-1.269.775,1.4,1.4,0,0,1-.52-.1l-7.273-3a21.689,21.689,0,0,1-4.933,2.925l-1.1,7.95A1.4,1.4,0,0,1,34.263,59.994ZM28.418,18.749a11.253,11.253,0,0,0,0,22.5,11.253,11.253,0,0,0,0-22.5Z" stroke="none"/>
        <path d="M 32.89762878417969 56.99422073364258 L 34.04645156860352 48.6618537902832 L 35.62858963012695 48.00146865844727 C 37.06317520141602 47.40266799926758 38.49166488647461 46.55349731445312 39.8743896484375 45.47756195068359 L 41.2498664855957 44.40725326538086 L 48.822021484375 47.53146362304688 L 53.39264297485352 39.4102783203125 L 46.98592758178711 34.2140998840332 L 47.17717361450195 32.57551574707031 C 47.2870979309082 31.63356018066406 47.34054183959961 30.79060554504395 47.34054183959961 29.99851417541504 C 47.34054183959961 29.14923667907715 47.27871322631836 28.31988334655762 47.15675735473633 27.53352928161621 L 46.89078903198242 25.81859016418457 L 53.42650604248047 20.57897567749023 L 48.85785293579102 12.46288967132568 L 41.28337478637695 15.5892219543457 L 39.90631103515625 14.51162147521973 C 38.53434371948242 13.43803691864014 37.14592742919922 12.61339092254639 35.66171264648438 11.99056053161621 L 34.08428192138672 11.32863712310791 L 32.93599319458008 3.000006437301636 L 23.93829154968262 3.000006437301636 L 22.78985023498535 11.32971382141113 L 21.21106719970703 11.99120616912842 C 19.77485084533691 12.59296035766602 18.34417343139648 13.44336032867432 16.95877456665039 14.51880645751953 L 15.58389759063721 15.58608341217041 L 8.014035224914551 12.46282768249512 L 3.446727514266968 20.58032608032227 L 9.980789184570312 25.81862258911133 L 9.714789390563965 27.53359031677246 C 9.567158699035645 28.48537635803223 9.495389938354492 29.29166793823242 9.495389938354492 29.99851417541504 C 9.495389938354492 30.83357620239258 9.559004783630371 31.68642234802246 9.679373741149902 32.46486663818359 L 9.944419860839844 34.17902374267578 L 3.409544944763184 39.41797256469727 L 7.977941036224365 47.53140258789062 L 15.55255889892578 44.40500640869141 L 16.92963600158691 45.48260498046875 C 18.30806732177734 46.5612678527832 19.69525146484375 47.38540649414062 21.17045021057129 48.00208282470703 L 22.75126647949219 48.66291427612305 L 23.89993476867676 56.99422073364258 L 32.89762878417969 56.99422073364258 M 28.41795921325684 15.74942207336426 C 36.11623382568359 15.74942207336426 42.37924957275391 22.14154434204102 42.37924957275391 29.99851417541504 C 42.37924957275391 37.85549926757812 36.11623382568359 44.24762344360352 28.41795921325684 44.24762344360352 C 20.71968269348145 44.24762344360352 14.45666599273682 37.85549926757812 14.45666599273682 29.99851417541504 C 14.45666599273682 22.14154434204102 20.71968269348145 15.74942207336426 28.41795921325684 15.74942207336426 M 34.26306533813477 59.99422073364258 L 22.57285118103027 59.99422073364258 C 21.84775924682617 59.99422073364258 21.25969696044922 59.48226928710938 21.10952758789062 58.72026824951172 L 20.01338958740234 50.76997756958008 C 18.2861442565918 50.04792785644531 16.67208099365234 49.09042358398438 15.08082008361816 47.84520721435547 L 7.81074333190918 50.84591293334961 C 7.64702033996582 50.90189743041992 7.476881980895996 50.93026733398438 7.304943561553955 50.93026733398438 C 6.757943153381348 50.93026733398438 6.278081893920898 50.64642333984375 6.021312713623047 50.17095947265625 L 0.1734664440155029 39.78523635864258 C -0.1590104848146439 39.13978958129883 -0.001133557874709368 38.31769943237305 0.5406664609909058 37.87288284301758 L 6.71460485458374 32.92328262329102 C 6.570805072784424 31.9932689666748 6.495389461517334 30.98088264465332 6.495389461517334 29.99851417541504 C 6.495389461517334 29.13609886169434 6.578743457794189 28.17939186096191 6.750235557556152 27.07376098632812 L 0.5762818455696106 22.12416076660156 C -0.00645663496106863 21.67491340637207 -0.1563489437103271 20.88852882385254 0.2118202894926071 20.21180725097656 L 6.056928157806396 9.823267936706543 C 6.315004825592041 9.345376014709473 6.801451206207275 9.048452377319336 7.326435565948486 9.048452377319336 C 7.504789352416992 9.048452377319336 7.679728031158447 9.082052230834961 7.846358776092529 9.148329734802246 L 15.11917400360107 12.14902210235596 C 16.71368217468262 10.91125297546387 18.37421989440918 9.927114486694336 20.0517578125 9.224252700805664 L 21.14788246154785 1.27396035194397 C 21.25780487060547 0.5238680243492126 21.8437442779541 6.489211045845877e-06 22.57285118103027 6.489211045845877e-06 L 34.26306533813477 6.489211045845877e-06 C 35.00280380249023 6.489211045845877e-06 35.61825180053711 0.5357757210731506 35.72640609741211 1.27396035194397 L 36.82252883911133 9.224252700805664 C 38.55732727050781 9.952221870422363 40.17139053344727 10.90971374511719 41.75511169433594 12.14902210235596 L 49.02518844604492 9.148329734802246 C 49.18891143798828 9.092329978942871 49.35905075073242 9.063960075378418 49.53099060058594 9.063960075378418 C 50.07798767089844 9.063960075378418 50.5578498840332 9.347806930541992 50.81462097167969 9.823267936706543 L 56.66246795654297 20.21180725097656 C 56.99597549438477 20.85640716552734 56.83809661865234 21.67849922180176 56.29526519775391 22.12416076660156 L 50.12131118774414 27.07376098632812 C 50.26715850830078 28.01417541503906 50.34054183959961 28.99919128417969 50.34054183959961 29.99851417541504 C 50.34054183959961 30.90791511535645 50.28049850463867 31.86462211608887 50.15694427490234 32.92328262329102 L 56.25963592529297 37.87288284301758 C 56.84235763549805 38.32209777832031 56.99228286743164 39.10849761962891 56.62409591674805 39.78523635864258 L 50.77898788452148 50.17095947265625 C 50.52095794677734 50.64882278442383 50.03451156616211 50.94574356079102 49.50949859619141 50.94575881958008 C 49.33115768432617 50.94575881958008 49.15623474121094 50.91217422485352 48.98955917358398 50.84591293334961 L 41.71674346923828 47.84520721435547 C 40.12318801879883 49.085205078125 38.46265029907227 50.06937408447266 36.78417587280273 50.76997756958008 L 35.68803405761719 58.72026824951172 C 35.61800384521484 59.45838928222656 35.01869583129883 59.99422073364258 34.26306533813477 59.99422073364258 Z M 28.41795921325684 18.74942207336426 C 22.37388229370117 18.74942207336426 17.45666694641113 23.79574584960938 17.45666694641113 29.99851417541504 C 17.45666694641113 36.20129776000977 22.37388229370117 41.24762344360352 28.41795921325684 41.24762344360352 C 34.46205139160156 41.24762344360352 39.37924957275391 36.20129776000977 39.37924957275391 29.99851417541504 C 39.37924957275391 23.79574584960938 34.46205139160156 18.74942207336426 28.41795921325684 18.74942207336426 Z" stroke="none" fill="#1976d2"/>
      </g>
      <g id="_Color-7" data-name=" ↳Color" transform="translate(1606.159 557.986)" fill="none" stroke-miterlimit="10">
        <path d="M31.576,56.837,27,52.748c-16.262-14.465-27-24-27-35.713A17.036,17.036,0,0,1,17.367,0,19.061,19.061,0,0,1,31.576,6.473,19.061,19.061,0,0,1,45.785,0,17.036,17.036,0,0,1,63.152,17.036c0,11.708-10.736,21.248-27,35.744Z" stroke="none"/>
        <path d="M 31.58349418640137 52.82138061523438 L 34.28274154663086 50.42862701416016 C 42.14213943481445 43.42276763916016 48.92974090576172 37.37228775024414 53.48081970214844 31.90022659301758 C 58.09440231323242 26.35298156738281 60.15181732177734 21.76853561401367 60.15181732177734 17.03550338745117 C 60.15181732177734 13.23385810852051 58.68254089355469 9.69895076751709 56.01466369628906 7.081934928894043 C 53.33120346069336 4.449658393859863 49.69824981689453 2.999996662139893 45.78506469726562 2.999996662139893 C 41.26351165771484 2.999996662139893 36.7985725402832 5.033704280853271 33.84134292602539 8.440165519714355 L 31.5759105682373 11.04975032806396 L 29.31048011779785 8.440165519714355 C 26.35324859619141 5.033704280853271 21.8883113861084 2.999996662139893 17.36675643920898 2.999996662139893 C 13.45357227325439 2.999996662139893 9.820618629455566 4.449658393859863 7.13715648651123 7.081934928894043 C 4.469279766082764 9.69895076751709 3.000002861022949 13.23385810852051 3.000002861022949 17.03550338745117 C 3.000002861022949 21.77681159973145 5.064403057098389 26.36847305297852 9.693679809570312 31.92361259460449 C 14.25972557067871 37.40287399291992 21.06800270080566 43.45884323120117 28.9513111114502 50.47104263305664 L 28.99560356140137 50.51044464111328 L 31.58349418640137 52.82138061523438 M 31.5759105682373 56.83664321899414 L 26.99740219116211 52.74811935424805 C 10.73580265045166 38.28342819213867 2.875929567380808e-06 28.7435359954834 2.875929567380808e-06 17.03550338745117 C 2.875929567380808e-06 7.495627403259277 7.641372203826904 -3.374774678377435e-06 17.36675643920898 -3.374774678377435e-06 C 22.8609561920166 -3.374774678377435e-06 28.13414192199707 2.508873462677002 31.5759105682373 6.473488807678223 C 35.01768112182617 2.508873462677002 40.29086303710938 -3.374774678377435e-06 45.78506469726562 -3.374774678377435e-06 C 55.51044845581055 -3.374774678377435e-06 63.15181732177734 7.495627403259277 63.15181732177734 17.03550338745117 C 63.15181732177734 28.7435359954834 52.41601943969727 38.28342819213867 36.1544189453125 52.77908706665039 L 31.5759105682373 56.83664321899414 Z" stroke="none" fill="#1976d2"/>
      </g>
      <g id="_Color-8" data-name=" ↳Color" transform="translate(1966.999 595.497)" fill="none" stroke-miterlimit="10">
        <path d="M31.576,56.837,27,52.748c-16.262-14.465-27-24-27-35.713A17.036,17.036,0,0,1,17.367,0,19.061,19.061,0,0,1,31.576,6.473,19.061,19.061,0,0,1,45.785,0,17.036,17.036,0,0,1,63.152,17.036c0,11.708-10.736,21.248-27,35.744Z" stroke="none"/>
        <path d="M 31.58349418640137 52.82138061523438 L 34.28274154663086 50.42862701416016 C 42.14213943481445 43.42276763916016 48.92974090576172 37.37228775024414 53.48081970214844 31.90022659301758 C 58.09440231323242 26.35298156738281 60.15181732177734 21.76853561401367 60.15181732177734 17.03550338745117 C 60.15181732177734 13.23385810852051 58.68254089355469 9.69895076751709 56.01466369628906 7.081934928894043 C 53.33120346069336 4.449658393859863 49.69824981689453 2.999996662139893 45.78506469726562 2.999996662139893 C 41.26351165771484 2.999996662139893 36.7985725402832 5.033704280853271 33.84134292602539 8.440165519714355 L 31.5759105682373 11.04975032806396 L 29.31048011779785 8.440165519714355 C 26.35324859619141 5.033704280853271 21.8883113861084 2.999996662139893 17.36675643920898 2.999996662139893 C 13.45357227325439 2.999996662139893 9.820618629455566 4.449658393859863 7.13715648651123 7.081934928894043 C 4.469279766082764 9.69895076751709 3.000002861022949 13.23385810852051 3.000002861022949 17.03550338745117 C 3.000002861022949 21.77681159973145 5.064403057098389 26.36847305297852 9.693679809570312 31.92361259460449 C 14.25972557067871 37.40287399291992 21.06800270080566 43.45884323120117 28.9513111114502 50.47104263305664 L 28.99560356140137 50.51044464111328 L 31.58349418640137 52.82138061523438 M 31.5759105682373 56.83664321899414 L 26.99740219116211 52.74811935424805 C 10.73580265045166 38.28342819213867 2.875929567380808e-06 28.7435359954834 2.875929567380808e-06 17.03550338745117 C 2.875929567380808e-06 7.495627403259277 7.641372203826904 -3.374774678377435e-06 17.36675643920898 -3.374774678377435e-06 C 22.8609561920166 -3.374774678377435e-06 28.13414192199707 2.508873462677002 31.5759105682373 6.473488807678223 C 35.01768112182617 2.508873462677002 40.29086303710938 -3.374774678377435e-06 45.78506469726562 -3.374774678377435e-06 C 55.51044845581055 -3.374774678377435e-06 63.15181732177734 7.495627403259277 63.15181732177734 17.03550338745117 C 63.15181732177734 28.7435359954834 52.41601943969727 38.28342819213867 36.1544189453125 52.77908706665039 L 31.5759105682373 56.83664321899414 Z" stroke="none" fill="#1976d2"/>
      </g>
      <g id="_Color-9" data-name=" ↳Color" transform="translate(1415.16 825.163)" fill="none" stroke-miterlimit="10">
        <path d="M31.576,56.837,27,52.748c-16.262-14.465-27-24-27-35.713A17.036,17.036,0,0,1,17.367,0,19.061,19.061,0,0,1,31.576,6.473,19.061,19.061,0,0,1,45.785,0,17.036,17.036,0,0,1,63.152,17.036c0,11.708-10.736,21.248-27,35.744Z" stroke="none"/>
        <path d="M 31.58349418640137 52.82138061523438 L 34.28274154663086 50.42862701416016 C 42.14213943481445 43.42276763916016 48.92974090576172 37.37228775024414 53.48081970214844 31.90022659301758 C 58.09440231323242 26.35298156738281 60.15181732177734 21.76853561401367 60.15181732177734 17.03550338745117 C 60.15181732177734 13.23385810852051 58.68254089355469 9.69895076751709 56.01466369628906 7.081934928894043 C 53.33120346069336 4.449658393859863 49.69824981689453 2.999996662139893 45.78506469726562 2.999996662139893 C 41.26351165771484 2.999996662139893 36.7985725402832 5.033704280853271 33.84134292602539 8.440165519714355 L 31.5759105682373 11.04975032806396 L 29.31048011779785 8.440165519714355 C 26.35324859619141 5.033704280853271 21.8883113861084 2.999996662139893 17.36675643920898 2.999996662139893 C 13.45357227325439 2.999996662139893 9.820618629455566 4.449658393859863 7.13715648651123 7.081934928894043 C 4.469279766082764 9.69895076751709 3.000002861022949 13.23385810852051 3.000002861022949 17.03550338745117 C 3.000002861022949 21.77681159973145 5.064403057098389 26.36847305297852 9.693679809570312 31.92361259460449 C 14.25972557067871 37.40287399291992 21.06800270080566 43.45884323120117 28.9513111114502 50.47104263305664 L 28.99560356140137 50.51044464111328 L 31.58349418640137 52.82138061523438 M 31.5759105682373 56.83664321899414 L 26.99740219116211 52.74811935424805 C 10.73580265045166 38.28342819213867 2.875929567380808e-06 28.7435359954834 2.875929567380808e-06 17.03550338745117 C 2.875929567380808e-06 7.495627403259277 7.641372203826904 -3.374774678377435e-06 17.36675643920898 -3.374774678377435e-06 C 22.8609561920166 -3.374774678377435e-06 28.13414192199707 2.508873462677002 31.5759105682373 6.473488807678223 C 35.01768112182617 2.508873462677002 40.29086303710938 -3.374774678377435e-06 45.78506469726562 -3.374774678377435e-06 C 55.51044845581055 -3.374774678377435e-06 63.15181732177734 7.495627403259277 63.15181732177734 17.03550338745117 C 63.15181732177734 28.7435359954834 52.41601943969727 38.28342819213867 36.1544189453125 52.77908706665039 L 31.5759105682373 56.83664321899414 Z" stroke="none" fill="#1976d2"/>
      </g>
      <path id="Path_400-2" data-name="Path 400" d="M29.261,29.261A12.63,12.63,0,1,0,16.63,16.63,12.627,12.627,0,0,0,29.261,29.261Zm0,6.315C20.83,35.576,4,39.807,4,48.206v6.315H54.521V48.206C54.521,39.807,37.691,35.576,29.261,35.576Z" transform="translate(1823.19 743.442)" fill="none" stroke="#1976d2" stroke-width="3"/>
      <path id="Path_401-2" data-name="Path 401" d="M29.261,29.261A12.63,12.63,0,1,0,16.63,16.63,12.627,12.627,0,0,0,29.261,29.261Zm0,6.315C20.83,35.576,4,39.807,4,48.206v6.315H54.521V48.206C54.521,39.807,37.691,35.576,29.261,35.576Z" transform="translate(1452.711 479.383)" fill="none" stroke="#1976d2" stroke-width="3"/>
      <path id="Path_402-2" data-name="Path 402" d="M29.261,29.261A12.63,12.63,0,1,0,16.63,16.63,12.627,12.627,0,0,0,29.261,29.261Zm0,6.315C20.83,35.576,4,39.807,4,48.206v6.315H54.521V48.206C54.521,39.807,37.691,35.576,29.261,35.576Z" transform="translate(1709.694 810.353)" fill="none" stroke="#1976d2" stroke-width="3"/>
      <g id="_Color-10" data-name=" ↳Color" transform="translate(1827.19 497.992)" fill="none" stroke-miterlimit="10">
        <path d="M34.263,59.994H22.573A1.5,1.5,0,0,1,21.11,58.72l-1.1-7.95a21.2,21.2,0,0,1-4.933-2.925l-7.27,3a1.56,1.56,0,0,1-.506.084,1.436,1.436,0,0,1-1.284-.759L.173,39.785a1.578,1.578,0,0,1,.367-1.912l6.174-4.95A19.49,19.49,0,0,1,6.5,30a19.134,19.134,0,0,1,.255-2.925L.576,22.124a1.476,1.476,0,0,1-.364-1.912L6.057,9.823a1.45,1.45,0,0,1,1.27-.775,1.4,1.4,0,0,1,.52.1l7.273,3a21.9,21.9,0,0,1,4.933-2.925l1.1-7.95A1.435,1.435,0,0,1,22.573,0h11.69a1.474,1.474,0,0,1,1.463,1.274l1.1,7.95a21.3,21.3,0,0,1,4.933,2.925l7.27-3a1.56,1.56,0,0,1,.506-.084,1.436,1.436,0,0,1,1.284.759l5.848,10.389a1.576,1.576,0,0,1-.367,1.912l-6.174,4.95A19.162,19.162,0,0,1,50.341,30a25.1,25.1,0,0,1-.184,2.925l6.1,4.95a1.476,1.476,0,0,1,.364,1.912L50.779,50.171a1.45,1.45,0,0,1-1.269.775,1.4,1.4,0,0,1-.52-.1l-7.273-3a21.689,21.689,0,0,1-4.933,2.925l-1.1,7.95A1.4,1.4,0,0,1,34.263,59.994ZM28.418,18.749a11.253,11.253,0,0,0,0,22.5,11.253,11.253,0,0,0,0-22.5Z" stroke="none"/>
        <path d="M 32.89762878417969 56.99422073364258 L 34.04645156860352 48.6618537902832 L 35.62858963012695 48.00146865844727 C 37.06317520141602 47.40266799926758 38.49166488647461 46.55349731445312 39.8743896484375 45.47756195068359 L 41.2498664855957 44.40725326538086 L 48.822021484375 47.53146362304688 L 53.39264297485352 39.4102783203125 L 46.98592758178711 34.2140998840332 L 47.17717361450195 32.57551574707031 C 47.2870979309082 31.63356018066406 47.34054183959961 30.79060554504395 47.34054183959961 29.99851417541504 C 47.34054183959961 29.14923667907715 47.27871322631836 28.31988334655762 47.15675735473633 27.53352928161621 L 46.89078903198242 25.81859016418457 L 53.42650604248047 20.57897567749023 L 48.85785293579102 12.46288967132568 L 41.28337478637695 15.5892219543457 L 39.90631103515625 14.51162147521973 C 38.53434371948242 13.43803691864014 37.14592742919922 12.61339092254639 35.66171264648438 11.99056053161621 L 34.08428192138672 11.32863712310791 L 32.93599319458008 3.000006437301636 L 23.93829154968262 3.000006437301636 L 22.78985023498535 11.32971382141113 L 21.21106719970703 11.99120616912842 C 19.77485084533691 12.59296035766602 18.34417343139648 13.44336032867432 16.95877456665039 14.51880645751953 L 15.58389759063721 15.58608341217041 L 8.014035224914551 12.46282768249512 L 3.446727514266968 20.58032608032227 L 9.980789184570312 25.81862258911133 L 9.714789390563965 27.53359031677246 C 9.567158699035645 28.48537635803223 9.495389938354492 29.29166793823242 9.495389938354492 29.99851417541504 C 9.495389938354492 30.83357620239258 9.559004783630371 31.68642234802246 9.679373741149902 32.46486663818359 L 9.944419860839844 34.17902374267578 L 3.409544944763184 39.41797256469727 L 7.977941036224365 47.53140258789062 L 15.55255889892578 44.40500640869141 L 16.92963600158691 45.48260498046875 C 18.30806732177734 46.5612678527832 19.69525146484375 47.38540649414062 21.17045021057129 48.00208282470703 L 22.75126647949219 48.66291427612305 L 23.89993476867676 56.99422073364258 L 32.89762878417969 56.99422073364258 M 28.41795921325684 15.74942207336426 C 36.11623382568359 15.74942207336426 42.37924957275391 22.14154434204102 42.37924957275391 29.99851417541504 C 42.37924957275391 37.85549926757812 36.11623382568359 44.24762344360352 28.41795921325684 44.24762344360352 C 20.71968269348145 44.24762344360352 14.45666599273682 37.85549926757812 14.45666599273682 29.99851417541504 C 14.45666599273682 22.14154434204102 20.71968269348145 15.74942207336426 28.41795921325684 15.74942207336426 M 34.26306533813477 59.99422073364258 L 22.57285118103027 59.99422073364258 C 21.84775924682617 59.99422073364258 21.25969696044922 59.48226928710938 21.10952758789062 58.72026824951172 L 20.01338958740234 50.76997756958008 C 18.2861442565918 50.04792785644531 16.67208099365234 49.09042358398438 15.08082008361816 47.84520721435547 L 7.81074333190918 50.84591293334961 C 7.64702033996582 50.90189743041992 7.476881980895996 50.93026733398438 7.304943561553955 50.93026733398438 C 6.757943153381348 50.93026733398438 6.278081893920898 50.64642333984375 6.021312713623047 50.17095947265625 L 0.1734664440155029 39.78523635864258 C -0.1590104848146439 39.13978958129883 -0.001133557874709368 38.31769943237305 0.5406664609909058 37.87288284301758 L 6.71460485458374 32.92328262329102 C 6.570805072784424 31.9932689666748 6.495389461517334 30.98088264465332 6.495389461517334 29.99851417541504 C 6.495389461517334 29.13609886169434 6.578743457794189 28.17939186096191 6.750235557556152 27.07376098632812 L 0.5762818455696106 22.12416076660156 C -0.00645663496106863 21.67491340637207 -0.1563489437103271 20.88852882385254 0.2118202894926071 20.21180725097656 L 6.056928157806396 9.823267936706543 C 6.315004825592041 9.345376014709473 6.801451206207275 9.048452377319336 7.326435565948486 9.048452377319336 C 7.504789352416992 9.048452377319336 7.679728031158447 9.082052230834961 7.846358776092529 9.148329734802246 L 15.11917400360107 12.14902210235596 C 16.71368217468262 10.91125297546387 18.37421989440918 9.927114486694336 20.0517578125 9.224252700805664 L 21.14788246154785 1.27396035194397 C 21.25780487060547 0.5238680243492126 21.8437442779541 6.489211045845877e-06 22.57285118103027 6.489211045845877e-06 L 34.26306533813477 6.489211045845877e-06 C 35.00280380249023 6.489211045845877e-06 35.61825180053711 0.5357757210731506 35.72640609741211 1.27396035194397 L 36.82252883911133 9.224252700805664 C 38.55732727050781 9.952221870422363 40.17139053344727 10.90971374511719 41.75511169433594 12.14902210235596 L 49.02518844604492 9.148329734802246 C 49.18891143798828 9.092329978942871 49.35905075073242 9.063960075378418 49.53099060058594 9.063960075378418 C 50.07798767089844 9.063960075378418 50.5578498840332 9.347806930541992 50.81462097167969 9.823267936706543 L 56.66246795654297 20.21180725097656 C 56.99597549438477 20.85640716552734 56.83809661865234 21.67849922180176 56.29526519775391 22.12416076660156 L 50.12131118774414 27.07376098632812 C 50.26715850830078 28.01417541503906 50.34054183959961 28.99919128417969 50.34054183959961 29.99851417541504 C 50.34054183959961 30.90791511535645 50.28049850463867 31.86462211608887 50.15694427490234 32.92328262329102 L 56.25963592529297 37.87288284301758 C 56.84235763549805 38.32209777832031 56.99228286743164 39.10849761962891 56.62409591674805 39.78523635864258 L 50.77898788452148 50.17095947265625 C 50.52095794677734 50.64882278442383 50.03451156616211 50.94574356079102 49.50949859619141 50.94575881958008 C 49.33115768432617 50.94575881958008 49.15623474121094 50.91217422485352 48.98955917358398 50.84591293334961 L 41.71674346923828 47.84520721435547 C 40.12318801879883 49.085205078125 38.46265029907227 50.06937408447266 36.78417587280273 50.76997756958008 L 35.68803405761719 58.72026824951172 C 35.61800384521484 59.45838928222656 35.01869583129883 59.99422073364258 34.26306533813477 59.99422073364258 Z M 28.41795921325684 18.74942207336426 C 22.37388229370117 18.74942207336426 17.45666694641113 23.79574584960938 17.45666694641113 29.99851417541504 C 17.45666694641113 36.20129776000977 22.37388229370117 41.24762344360352 28.41795921325684 41.24762344360352 C 34.46205139160156 41.24762344360352 39.37924957275391 36.20129776000977 39.37924957275391 29.99851417541504 C 39.37924957275391 23.79574584960938 34.46205139160156 18.74942207336426 28.41795921325684 18.74942207336426 Z" stroke="none" fill="#1976d2"/>
      </g>
    </g>
    <g id="Group_44" data-name="Group 44" transform="translate(1843.305 -278.383)">
      <g id="_Color-11" data-name=" ↳Color" transform="translate(1378.279 653.006)" fill="none" stroke-miterlimit="10">
        <path d="M35.238,61.7H23.215a1.538,1.538,0,0,1-1.5-1.31l-1.127-8.176a21.8,21.8,0,0,1-5.073-3.008L8.033,52.292a1.6,1.6,0,0,1-.52.087,1.476,1.476,0,0,1-1.32-.781L.178,40.917A1.623,1.623,0,0,1,.556,38.95l6.35-5.09a20.045,20.045,0,0,1-.225-3.008,19.679,19.679,0,0,1,.262-3.008l-6.35-5.09a1.518,1.518,0,0,1-.375-1.967L6.229,10.1a1.492,1.492,0,0,1,1.306-.8,1.441,1.441,0,0,1,.535.1l7.48,3.086a22.517,22.517,0,0,1,5.073-3.008L21.75,1.31A1.476,1.476,0,0,1,23.215,0H35.238a1.516,1.516,0,0,1,1.5,1.31L37.87,9.487a21.9,21.9,0,0,1,5.073,3.008L50.42,9.409a1.6,1.6,0,0,1,.52-.087,1.476,1.476,0,0,1,1.32.781l6.014,10.684a1.62,1.62,0,0,1-.378,1.967l-6.35,5.09a19.706,19.706,0,0,1,.225,3.008,25.813,25.813,0,0,1-.189,3.008l6.276,5.09a1.518,1.518,0,0,1,.375,1.967L52.224,51.6a1.492,1.492,0,0,1-1.306.8,1.441,1.441,0,0,1-.535-.1L42.9,49.206a22.306,22.306,0,0,1-5.073,3.008L36.7,60.391A1.438,1.438,0,0,1,35.238,61.7ZM29.226,19.283a11.573,11.573,0,0,0,0,23.138,11.573,11.573,0,0,0,0-23.138Z" stroke="none"/>
        <path d="M 33.90789794921875 58.70095443725586 L 35.09288787841797 50.10615539550781 L 36.67504119873047 49.44577026367188 C 38.15742492675781 48.82703018188477 39.63313293457031 47.94986343383789 41.06116485595703 46.83866119384766 L 42.43664169311523 45.76835250854492 L 50.24823379516602 48.99135971069336 L 55.02126693725586 40.51051330566406 L 48.41279602050781 35.15070724487305 L 48.60404205322266 33.51210784912109 C 48.71748733520508 32.54004669189453 48.77264022827148 31.66989326477051 48.77264022827148 30.8519229888916 C 48.77264022827148 29.9741382598877 48.70870208740234 29.11678504943848 48.58261108398438 28.30369186401367 L 48.31667327880859 26.58878517150879 L 55.05629730224609 21.1856746673584 L 50.28506469726562 12.70971965789795 L 42.47121047973633 15.93484687805176 L 41.09415054321289 14.85724639892578 C 39.67712020874023 13.74836921691895 38.24281311035156 12.89650821685791 36.70925903320312 12.25300025939941 L 35.13182830810547 11.59106159210205 L 33.94734573364258 3.000000238418579 L 24.5449104309082 3.000000238418579 L 23.36028861999512 11.59216976165771 L 21.78147315979004 12.25364685058594 C 20.29748916625977 12.87538528442383 18.81962585449219 13.75376987457275 17.3889045715332 14.86441612243652 L 16.0140266418457 15.93170833587646 L 8.204704284667969 12.70965957641602 L 3.434889554977417 21.18706321716309 L 10.17282676696777 26.58881568908691 L 9.906826972961426 28.30378532409668 C 9.754303932189941 29.28707695007324 9.68016529083252 30.12058448791504 9.68016529083252 30.8519229888916 C 9.68016529083252 31.71498489379883 9.745949745178223 32.59661483764648 9.870395660400391 33.4014778137207 L 10.13544178009033 35.11563110351562 L 3.396619319915771 40.51807022094727 L 8.167596817016602 48.99130249023438 L 15.98158073425293 45.76610946655273 L 17.35865783691406 46.84370803833008 C 18.78244209289551 47.95786285400391 20.21551895141602 48.80920028686523 21.73978042602539 49.44638442993164 L 23.32061195373535 50.10720062255859 L 24.50544929504395 58.70095443725586 L 33.90789794921875 58.70095443725586 M 29.22639656066895 16.28281593322754 C 37.09662628173828 16.28281593322754 43.49951934814453 22.8184928894043 43.49951934814453 30.8519229888916 C 43.49951934814453 38.88535308837891 37.09662628173828 45.4210319519043 29.22639656066895 45.4210319519043 C 21.35618019104004 45.4210319519043 14.95328807830811 38.88535308837891 14.95328807830811 30.8519229888916 C 14.95328807830811 22.8184928894043 21.35618019104004 16.28281593322754 29.22639656066895 16.28281593322754 M 35.23779678344727 61.70095443725586 L 23.21501159667969 61.70095443725586 C 22.46928787231445 61.70095443725586 21.86448860168457 61.17443084716797 21.71004295349121 60.39075469970703 L 20.58273506164551 52.21427536010742 C 18.80635070800781 51.47170639038086 17.14638137817383 50.48695373535156 15.50984191894531 49.20630645751953 L 8.032934188842773 52.29238510131836 C 7.864565372467041 52.34996795654297 7.68958044052124 52.3791389465332 7.512749671936035 52.3791389465332 C 6.950180530548096 52.3791389465332 6.456672668457031 52.08721542358398 6.192595958709717 51.59823226928711 L 0.1783959716558456 40.91704559326172 C -0.1635271012783051 40.25324630737305 -0.001157874707132578 39.40775299072266 0.5560421347618103 38.95029449462891 L 6.905626773834229 33.85989379882812 C 6.757734298706055 32.90341567993164 6.68016529083252 31.86223030090332 6.68016529083252 30.8519229888916 C 6.68016529083252 29.9649543762207 6.765903472900391 28.98103141784668 6.942272663116455 27.84395408630371 L 0.592688262462616 22.75353813171387 C -0.006634797900915146 22.29152297973633 -0.1608040332794189 21.48276901245117 0.2178421318531036 20.78680038452148 L 6.229242324829102 10.10272312164307 C 6.494657516479492 9.611230850219727 6.994934558868408 9.305877685546875 7.534857273101807 9.305877685546875 C 7.718288421630859 9.305877685546875 7.898195743560791 9.340415954589844 8.069581031799316 9.408584594726562 L 15.54928874969482 12.4946460723877 C 17.18914985656738 11.22164630889893 18.89693450927734 10.20950794219971 20.62219619750977 9.486677169799805 L 21.74950408935547 1.310200333595276 C 21.86255073547363 0.538769543170929 22.46516609191895 2.955510183255683e-07 23.21501159667969 2.955510183255683e-07 L 35.23779678344727 2.955510183255683e-07 C 35.99858093261719 2.955510183255683e-07 36.63151931762695 0.5510156750679016 36.74274826049805 1.310200333595276 L 37.87007141113281 9.486677169799805 C 39.65422821044922 10.23535442352295 41.3141975402832 11.22007751464844 42.94296646118164 12.4946460723877 L 50.41987228393555 9.408584594726562 C 50.58824157714844 9.350984573364258 50.76321029663086 9.321815490722656 50.94005584716797 9.321815490722656 C 51.50261306762695 9.321815490722656 51.99613571166992 9.613739013671875 52.26019668579102 10.10272312164307 L 58.27441024780273 20.78680038452148 C 58.61739730834961 21.44973945617676 58.45502853393555 22.29521560668945 57.89676666259766 22.75353813171387 L 51.54718017578125 27.84395408630371 C 51.69716644287109 28.81112289428711 51.77264022827148 29.82416915893555 51.77264022827148 30.8519229888916 C 51.77264022827148 31.78718566894531 51.71088790893555 32.7711067199707 51.58381271362305 33.85989379882812 L 57.8601188659668 38.95029449462891 C 58.45942687988281 39.41229248046875 58.61361312866211 40.22107696533203 58.23495101928711 40.91704559326172 L 52.22356414794922 51.59823226928711 C 51.95817947387695 52.08969116210938 51.45790481567383 52.39506149291992 50.91794967651367 52.39507675170898 C 50.73455047607422 52.39507675170898 50.55464172363281 52.36053848266602 50.38322830200195 52.29238510131836 L 42.90351867675781 49.20630645751953 C 41.26462554931641 50.48158645629883 39.55684280395508 51.49375534057617 37.83061218261719 52.21427536010742 L 36.70330429077148 60.39075469970703 C 36.63127136230469 61.14987564086914 36.01491928100586 61.70095443725586 35.23779678344727 61.70095443725586 Z M 29.22639656066895 19.28281593322754 C 23.0103645324707 19.28281593322754 17.95328903198242 24.47267723083496 17.95328903198242 30.8519229888916 C 17.95328903198242 37.23117065429688 23.0103645324707 42.4210319519043 29.22639656066895 42.4210319519043 C 35.44242858886719 42.4210319519043 40.49951934814453 37.23117065429688 40.49951934814453 30.8519229888916 C 40.49951934814453 24.47267723083496 35.44242858886719 19.28281593322754 29.22639656066895 19.28281593322754 Z" stroke="none" fill="#1976d2"/>
      </g>
      <g id="_Color-12" data-name=" ↳Color" transform="translate(1612.642 560.109)" fill="none" stroke-miterlimit="10">
        <path d="M32.474,58.454l-4.709-4.2C11.041,39.373,0,29.561,0,17.52A17.521,17.521,0,0,1,17.861,0,19.6,19.6,0,0,1,32.474,6.658,19.6,19.6,0,0,1,47.088,0,17.521,17.521,0,0,1,64.948,17.52c0,12.041-11.041,21.852-27.765,36.76Z" stroke="none"/>
        <path d="M 32.48177337646484 54.43827819824219 L 35.31486129760742 51.9268913269043 C 43.40038681030273 44.71945953369141 50.38327789306641 38.49490356445312 55.06787872314453 32.86228942871094 C 59.82635498046875 27.14084434509277 61.94837188720703 22.40915107727051 61.94837188720703 17.5201358795166 C 61.94837188720703 13.5872278213501 60.42821502685547 9.930120468139648 57.66793823242188 7.222489833831787 C 54.8920783996582 4.499566555023193 51.13457107543945 2.99999737739563 47.08757019042969 2.99999737739563 C 42.41301727294922 2.99999737739563 37.79695510864258 5.102550983428955 34.73961639404297 8.624320030212402 L 32.47418594360352 11.23388957977295 L 30.20875549316406 8.624320030212402 C 27.15141677856445 5.102550983428955 22.53535461425781 2.99999737739563 17.86080169677734 2.99999737739563 C 13.81380176544189 2.99999737739563 10.05629348754883 4.499566555023193 7.280432224273682 7.222489833831787 C 4.52015495300293 9.930120468139648 3.000001430511475 13.5872278213501 3.000001430511475 17.5201358795166 C 3.000001430511475 22.41767501831055 5.129231929779053 27.15679740905762 9.903862953186035 32.88638305664062 C 14.60386276245117 38.52639770507812 21.60798645019531 44.7565803527832 29.71809387207031 51.97050476074219 L 29.76363182067871 52.01102828979492 L 32.48177337646484 54.43827819824219 M 32.47418594360352 58.45353698730469 L 27.76543235778809 54.24870681762695 C 11.04123210906982 39.37252044677734 1.328218900198408e-06 29.56124305725098 1.328218900198408e-06 17.5201358795166 C 1.328218900198408e-06 7.708858966827393 7.858755111694336 -2.644465439516352e-06 17.86080169677734 -2.644465439516352e-06 C 23.51130867004395 -2.644465439516352e-06 28.93449401855469 2.580243587493896 32.47418594360352 6.65764331817627 C 36.01387786865234 2.580243587493896 41.43706130981445 -2.644465439516352e-06 47.08757019042969 -2.644465439516352e-06 C 57.08961486816406 -2.644465439516352e-06 64.94837188720703 7.708858966827393 64.94837188720703 17.5201358795166 C 64.94837188720703 29.56124305725098 53.90715408325195 39.37252044677734 37.18294143676758 54.28056716918945 L 32.47418594360352 58.45353698730469 Z" stroke="none" fill="#1976d2"/>
      </g>
      <g id="_Color-13" data-name=" ↳Color" transform="translate(1983.747 598.687)" fill="none" stroke-miterlimit="10">
        <path d="M32.474,58.454l-4.709-4.2C11.041,39.373,0,29.561,0,17.52A17.521,17.521,0,0,1,17.861,0,19.6,19.6,0,0,1,32.474,6.658,19.6,19.6,0,0,1,47.088,0,17.521,17.521,0,0,1,64.948,17.52c0,12.041-11.041,21.852-27.765,36.76Z" stroke="none"/>
        <path d="M 32.48177337646484 54.43827819824219 L 35.31486129760742 51.9268913269043 C 43.40038681030273 44.71945953369141 50.38327789306641 38.49490356445312 55.06787872314453 32.86228942871094 C 59.82635498046875 27.14084434509277 61.94837188720703 22.40915107727051 61.94837188720703 17.5201358795166 C 61.94837188720703 13.5872278213501 60.42821502685547 9.930120468139648 57.66793823242188 7.222489833831787 C 54.8920783996582 4.499566555023193 51.13457107543945 2.99999737739563 47.08757019042969 2.99999737739563 C 42.41301727294922 2.99999737739563 37.79695510864258 5.102550983428955 34.73961639404297 8.624320030212402 L 32.47418594360352 11.23388957977295 L 30.20875549316406 8.624320030212402 C 27.15141677856445 5.102550983428955 22.53535461425781 2.99999737739563 17.86080169677734 2.99999737739563 C 13.81380176544189 2.99999737739563 10.05629348754883 4.499566555023193 7.280432224273682 7.222489833831787 C 4.52015495300293 9.930120468139648 3.000001430511475 13.5872278213501 3.000001430511475 17.5201358795166 C 3.000001430511475 22.41767501831055 5.129231929779053 27.15679740905762 9.903862953186035 32.88638305664062 C 14.60386276245117 38.52639770507812 21.60798645019531 44.7565803527832 29.71809387207031 51.97050476074219 L 29.76363182067871 52.01102828979492 L 32.48177337646484 54.43827819824219 M 32.47418594360352 58.45353698730469 L 27.76543235778809 54.24870681762695 C 11.04123210906982 39.37252044677734 1.328218900198408e-06 29.56124305725098 1.328218900198408e-06 17.5201358795166 C 1.328218900198408e-06 7.708858966827393 7.858755111694336 -2.644465439516352e-06 17.86080169677734 -2.644465439516352e-06 C 23.51130867004395 -2.644465439516352e-06 28.93449401855469 2.580243587493896 32.47418594360352 6.65764331817627 C 36.01387786865234 2.580243587493896 41.43706130981445 -2.644465439516352e-06 47.08757019042969 -2.644465439516352e-06 C 57.08961486816406 -2.644465439516352e-06 64.94837188720703 7.708858966827393 64.94837188720703 17.5201358795166 C 64.94837188720703 29.56124305725098 53.90715408325195 39.37252044677734 37.18294143676758 54.28056716918945 L 32.47418594360352 58.45353698730469 Z" stroke="none" fill="#1976d2"/>
      </g>
      <g id="_Color-14" data-name=" ↳Color" transform="translate(1416.209 834.886)" fill="none" stroke-miterlimit="10">
        <path d="M32.474,58.454l-4.709-4.2C11.041,39.373,0,29.561,0,17.52A17.521,17.521,0,0,1,17.861,0,19.6,19.6,0,0,1,32.474,6.658,19.6,19.6,0,0,1,47.088,0,17.521,17.521,0,0,1,64.948,17.52c0,12.041-11.041,21.852-27.765,36.76Z" stroke="none"/>
        <path d="M 32.48177337646484 54.43827819824219 L 35.31486129760742 51.9268913269043 C 43.40038681030273 44.71945953369141 50.38327789306641 38.49490356445312 55.06787872314453 32.86228942871094 C 59.82635498046875 27.14084434509277 61.94837188720703 22.40915107727051 61.94837188720703 17.5201358795166 C 61.94837188720703 13.5872278213501 60.42821502685547 9.930120468139648 57.66793823242188 7.222489833831787 C 54.8920783996582 4.499566555023193 51.13457107543945 2.99999737739563 47.08757019042969 2.99999737739563 C 42.41301727294922 2.99999737739563 37.79695510864258 5.102550983428955 34.73961639404297 8.624320030212402 L 32.47418594360352 11.23388957977295 L 30.20875549316406 8.624320030212402 C 27.15141677856445 5.102550983428955 22.53535461425781 2.99999737739563 17.86080169677734 2.99999737739563 C 13.81380176544189 2.99999737739563 10.05629348754883 4.499566555023193 7.280432224273682 7.222489833831787 C 4.52015495300293 9.930120468139648 3.000001430511475 13.5872278213501 3.000001430511475 17.5201358795166 C 3.000001430511475 22.41767501831055 5.129231929779053 27.15679740905762 9.903862953186035 32.88638305664062 C 14.60386276245117 38.52639770507812 21.60798645019531 44.7565803527832 29.71809387207031 51.97050476074219 L 29.76363182067871 52.01102828979492 L 32.48177337646484 54.43827819824219 M 32.47418594360352 58.45353698730469 L 27.76543235778809 54.24870681762695 C 11.04123210906982 39.37252044677734 1.328218900198408e-06 29.56124305725098 1.328218900198408e-06 17.5201358795166 C 1.328218900198408e-06 7.708858966827393 7.858755111694336 -2.644465439516352e-06 17.86080169677734 -2.644465439516352e-06 C 23.51130867004395 -2.644465439516352e-06 28.93449401855469 2.580243587493896 32.47418594360352 6.65764331817627 C 36.01387786865234 2.580243587493896 41.43706130981445 -2.644465439516352e-06 47.08757019042969 -2.644465439516352e-06 C 57.08961486816406 -2.644465439516352e-06 64.94837188720703 7.708858966827393 64.94837188720703 17.5201358795166 C 64.94837188720703 29.56124305725098 53.90715408325195 39.37252044677734 37.18294143676758 54.28056716918945 L 32.47418594360352 58.45353698730469 Z" stroke="none" fill="#1976d2"/>
      </g>
      <path id="Path_400-3" data-name="Path 400" d="M29.979,29.979A12.99,12.99,0,1,0,16.99,16.99,12.986,12.986,0,0,0,29.979,29.979Zm0,6.495C21.309,36.474,4,40.826,4,49.464v6.495H55.959V49.464C55.959,40.826,38.65,36.474,29.979,36.474Z" transform="translate(1835.961 750.954)" fill="none" stroke="#1976d2" stroke-width="3"/>
      <path id="Path_401-3" data-name="Path 401" d="M29.979,29.979A12.99,12.99,0,1,0,16.99,16.99,12.986,12.986,0,0,0,29.979,29.979Zm0,6.495C21.309,36.474,4,40.826,4,49.464v6.495H55.959V49.464C55.959,40.826,38.65,36.474,29.979,36.474Z" transform="translate(1454.942 479.383)" fill="none" stroke="#1976d2" stroke-width="3"/>
      <path id="Path_402-3" data-name="Path 402" d="M29.979,29.979A12.99,12.99,0,1,0,16.99,16.99,12.986,12.986,0,0,0,29.979,29.979Zm0,6.495C21.309,36.474,4,40.826,4,49.464v6.495H55.959V49.464C55.959,40.826,38.65,36.474,29.979,36.474Z" transform="translate(1719.236 819.768)" fill="none" stroke="#1976d2" stroke-width="3"/>
      <g id="_Color-15" data-name=" ↳Color" transform="translate(1839.961 498.408)" fill="none" stroke-miterlimit="10">
        <path d="M35.238,61.7H23.215a1.538,1.538,0,0,1-1.5-1.31l-1.127-8.176a21.8,21.8,0,0,1-5.073-3.008L8.033,52.292a1.6,1.6,0,0,1-.52.087,1.476,1.476,0,0,1-1.32-.781L.178,40.917A1.623,1.623,0,0,1,.556,38.95l6.35-5.09a20.045,20.045,0,0,1-.225-3.008,19.679,19.679,0,0,1,.262-3.008l-6.35-5.09a1.518,1.518,0,0,1-.375-1.967L6.229,10.1a1.492,1.492,0,0,1,1.306-.8,1.441,1.441,0,0,1,.535.1l7.48,3.086a22.517,22.517,0,0,1,5.073-3.008L21.75,1.31A1.476,1.476,0,0,1,23.215,0H35.238a1.516,1.516,0,0,1,1.5,1.31L37.87,9.487a21.9,21.9,0,0,1,5.073,3.008L50.42,9.409a1.6,1.6,0,0,1,.52-.087,1.476,1.476,0,0,1,1.32.781l6.014,10.684a1.62,1.62,0,0,1-.378,1.967l-6.35,5.09a19.706,19.706,0,0,1,.225,3.008,25.813,25.813,0,0,1-.189,3.008l6.276,5.09a1.518,1.518,0,0,1,.375,1.967L52.224,51.6a1.492,1.492,0,0,1-1.306.8,1.441,1.441,0,0,1-.535-.1L42.9,49.206a22.306,22.306,0,0,1-5.073,3.008L36.7,60.391A1.438,1.438,0,0,1,35.238,61.7ZM29.226,19.283a11.573,11.573,0,0,0,0,23.138,11.573,11.573,0,0,0,0-23.138Z" stroke="none"/>
        <path d="M 33.90789794921875 58.70095443725586 L 35.09288787841797 50.10615539550781 L 36.67504119873047 49.44577026367188 C 38.15742492675781 48.82703018188477 39.63313293457031 47.94986343383789 41.06116485595703 46.83866119384766 L 42.43664169311523 45.76835250854492 L 50.24823379516602 48.99135971069336 L 55.02126693725586 40.51051330566406 L 48.41279602050781 35.15070724487305 L 48.60404205322266 33.51210784912109 C 48.71748733520508 32.54004669189453 48.77264022827148 31.66989326477051 48.77264022827148 30.8519229888916 C 48.77264022827148 29.9741382598877 48.70870208740234 29.11678504943848 48.58261108398438 28.30369186401367 L 48.31667327880859 26.58878517150879 L 55.05629730224609 21.1856746673584 L 50.28506469726562 12.70971965789795 L 42.47121047973633 15.93484687805176 L 41.09415054321289 14.85724639892578 C 39.67712020874023 13.74836921691895 38.24281311035156 12.89650821685791 36.70925903320312 12.25300025939941 L 35.13182830810547 11.59106159210205 L 33.94734573364258 3.000000238418579 L 24.5449104309082 3.000000238418579 L 23.36028861999512 11.59216976165771 L 21.78147315979004 12.25364685058594 C 20.29748916625977 12.87538528442383 18.81962585449219 13.75376987457275 17.3889045715332 14.86441612243652 L 16.0140266418457 15.93170833587646 L 8.204704284667969 12.70965957641602 L 3.434889554977417 21.18706321716309 L 10.17282676696777 26.58881568908691 L 9.906826972961426 28.30378532409668 C 9.754303932189941 29.28707695007324 9.68016529083252 30.12058448791504 9.68016529083252 30.8519229888916 C 9.68016529083252 31.71498489379883 9.745949745178223 32.59661483764648 9.870395660400391 33.4014778137207 L 10.13544178009033 35.11563110351562 L 3.396619319915771 40.51807022094727 L 8.167596817016602 48.99130249023438 L 15.98158073425293 45.76610946655273 L 17.35865783691406 46.84370803833008 C 18.78244209289551 47.95786285400391 20.21551895141602 48.80920028686523 21.73978042602539 49.44638442993164 L 23.32061195373535 50.10720062255859 L 24.50544929504395 58.70095443725586 L 33.90789794921875 58.70095443725586 M 29.22639656066895 16.28281593322754 C 37.09662628173828 16.28281593322754 43.49951934814453 22.8184928894043 43.49951934814453 30.8519229888916 C 43.49951934814453 38.88535308837891 37.09662628173828 45.4210319519043 29.22639656066895 45.4210319519043 C 21.35618019104004 45.4210319519043 14.95328807830811 38.88535308837891 14.95328807830811 30.8519229888916 C 14.95328807830811 22.8184928894043 21.35618019104004 16.28281593322754 29.22639656066895 16.28281593322754 M 35.23779678344727 61.70095443725586 L 23.21501159667969 61.70095443725586 C 22.46928787231445 61.70095443725586 21.86448860168457 61.17443084716797 21.71004295349121 60.39075469970703 L 20.58273506164551 52.21427536010742 C 18.80635070800781 51.47170639038086 17.14638137817383 50.48695373535156 15.50984191894531 49.20630645751953 L 8.032934188842773 52.29238510131836 C 7.864565372467041 52.34996795654297 7.68958044052124 52.3791389465332 7.512749671936035 52.3791389465332 C 6.950180530548096 52.3791389465332 6.456672668457031 52.08721542358398 6.192595958709717 51.59823226928711 L 0.1783959716558456 40.91704559326172 C -0.1635271012783051 40.25324630737305 -0.001157874707132578 39.40775299072266 0.5560421347618103 38.95029449462891 L 6.905626773834229 33.85989379882812 C 6.757734298706055 32.90341567993164 6.68016529083252 31.86223030090332 6.68016529083252 30.8519229888916 C 6.68016529083252 29.9649543762207 6.765903472900391 28.98103141784668 6.942272663116455 27.84395408630371 L 0.592688262462616 22.75353813171387 C -0.006634797900915146 22.29152297973633 -0.1608040332794189 21.48276901245117 0.2178421318531036 20.78680038452148 L 6.229242324829102 10.10272312164307 C 6.494657516479492 9.611230850219727 6.994934558868408 9.305877685546875 7.534857273101807 9.305877685546875 C 7.718288421630859 9.305877685546875 7.898195743560791 9.340415954589844 8.069581031799316 9.408584594726562 L 15.54928874969482 12.4946460723877 C 17.18914985656738 11.22164630889893 18.89693450927734 10.20950794219971 20.62219619750977 9.486677169799805 L 21.74950408935547 1.310200333595276 C 21.86255073547363 0.538769543170929 22.46516609191895 2.955510183255683e-07 23.21501159667969 2.955510183255683e-07 L 35.23779678344727 2.955510183255683e-07 C 35.99858093261719 2.955510183255683e-07 36.63151931762695 0.5510156750679016 36.74274826049805 1.310200333595276 L 37.87007141113281 9.486677169799805 C 39.65422821044922 10.23535442352295 41.3141975402832 11.22007751464844 42.94296646118164 12.4946460723877 L 50.41987228393555 9.408584594726562 C 50.58824157714844 9.350984573364258 50.76321029663086 9.321815490722656 50.94005584716797 9.321815490722656 C 51.50261306762695 9.321815490722656 51.99613571166992 9.613739013671875 52.26019668579102 10.10272312164307 L 58.27441024780273 20.78680038452148 C 58.61739730834961 21.44973945617676 58.45502853393555 22.29521560668945 57.89676666259766 22.75353813171387 L 51.54718017578125 27.84395408630371 C 51.69716644287109 28.81112289428711 51.77264022827148 29.82416915893555 51.77264022827148 30.8519229888916 C 51.77264022827148 31.78718566894531 51.71088790893555 32.7711067199707 51.58381271362305 33.85989379882812 L 57.8601188659668 38.95029449462891 C 58.45942687988281 39.41229248046875 58.61361312866211 40.22107696533203 58.23495101928711 40.91704559326172 L 52.22356414794922 51.59823226928711 C 51.95817947387695 52.08969116210938 51.45790481567383 52.39506149291992 50.91794967651367 52.39507675170898 C 50.73455047607422 52.39507675170898 50.55464172363281 52.36053848266602 50.38322830200195 52.29238510131836 L 42.90351867675781 49.20630645751953 C 41.26462554931641 50.48158645629883 39.55684280395508 51.49375534057617 37.83061218261719 52.21427536010742 L 36.70330429077148 60.39075469970703 C 36.63127136230469 61.14987564086914 36.01491928100586 61.70095443725586 35.23779678344727 61.70095443725586 Z M 29.22639656066895 19.28281593322754 C 23.0103645324707 19.28281593322754 17.95328903198242 24.47267723083496 17.95328903198242 30.8519229888916 C 17.95328903198242 37.23117065429688 23.0103645324707 42.4210319519043 29.22639656066895 42.4210319519043 C 35.44242858886719 42.4210319519043 40.49951934814453 37.23117065429688 40.49951934814453 30.8519229888916 C 40.49951934814453 24.47267723083496 35.44242858886719 19.28281593322754 29.22639656066895 19.28281593322754 Z" stroke="none" fill="#1976d2"/>
      </g>
    </g>
  </g>
</svg>
